<svg version="1.1" id="Layer_1" xmlns="http://www.w3.org/2000/svg" xmlns:xlink="http://www.w3.org/1999/xlink" x="0px" y="0px"
	 width="100%" viewBox="0 0 480 401" enable-background="new 0 0 480 401" xml:space="preserve">
<path fill="#0a0a0a" opacity="1.000000" stroke="none" 
	d="
M100.000000,402.000000 
	C67.009178,402.000000 34.018360,402.000000 1.020654,402.000000 
	C1.013770,268.379700 1.013770,134.759399 1.013770,1.069544 
	C160.909103,1.069544 320.818237,1.069544 480.863708,1.069544 
	C480.863708,134.666580 480.863708,268.333282 480.863708,402.000000 
	C418.901428,402.000000 356.918579,402.000000 294.417969,401.541748 
	C293.904022,397.395020 293.907806,393.706543 294.353271,390.012207 
	C296.600342,389.811798 298.432159,389.751404 300.207123,389.402222 
	C321.059967,385.299866 340.748596,378.123047 359.184784,367.448456 
	C378.612274,356.199951 395.850769,342.322052 410.233124,325.095367 
	C427.454865,304.467804 440.005432,281.263641 447.753723,255.457886 
	C455.665344,229.108047 456.899231,202.217667 453.699158,175.168869 
	C451.308136,154.958664 444.801758,135.742447 436.064240,117.358040 
	C434.932587,114.976952 432.723663,113.107872 430.995453,110.533096 
	C430.978210,91.902176 431.027527,73.739616 430.962677,55.577465 
	C430.922028,44.192535 421.700684,35.008522 410.386780,34.985634 
	C393.557465,34.951588 376.727905,35.004002 359.898773,34.936615 
	C357.949127,34.928802 356.001617,34.393375 353.985962,33.748909 
	C352.623993,32.436134 351.445465,31.226290 350.013855,30.561983 
	C344.301880,27.911522 338.592224,25.224119 332.734802,22.924723 
	C312.325500,14.912848 291.070343,10.423769 269.203491,10.202298 
	C256.510376,10.073740 243.681793,11.203076 231.113678,13.092990 
	C191.622589,19.031406 157.865417,37.029308 129.245529,64.458160 
	C111.971634,81.013191 98.742950,100.646248 88.680573,122.482834 
	C73.214211,156.046738 68.852707,191.255554 73.276459,227.519730 
	C76.234650,251.769775 84.275383,274.650940 96.526474,295.907654 
	C97.260651,297.181458 98.817024,297.981415 100.026146,299.469360 
	C100.040993,333.957886 100.020493,367.978943 100.000000,402.000000 
z"/>
<path fill="#95C8F3" opacity="1.000000" stroke="none" 
	d="
M100.468658,402.000000 
	C100.020493,367.978943 100.040993,333.957886 100.057648,299.001282 
	C100.061577,291.441132 100.063950,284.816528 100.078392,278.191925 
	C100.100655,267.980103 103.354614,264.504272 113.930008,263.895630 
	C127.829903,263.927216 141.296082,263.905609 155.227631,263.915161 
	C158.481430,263.955872 161.269852,263.965363 164.523270,263.979248 
	C186.852051,263.983643 208.715820,263.983643 230.770218,263.983643 
	C230.770218,266.633850 230.929123,268.450745 230.742981,270.231628 
	C229.885559,278.434845 228.891068,286.623688 228.022339,294.825806 
	C226.701340,307.298218 225.190384,319.759308 224.302216,332.263702 
	C224.008286,336.401978 221.417816,341.788940 227.385223,344.653564 
	C224.210159,348.587982 221.266235,352.271484 217.871796,356.518646 
	C237.528244,365.437073 256.201874,373.909576 274.875519,382.382080 
	C275.338837,381.876892 275.802155,381.371735 276.265472,380.866577 
	C272.872192,377.090149 269.495697,373.298523 266.080933,369.541626 
	C262.661499,365.779602 259.203888,362.052246 256.122009,358.218964 
	C259.555847,358.924408 260.561310,357.033203 260.870911,354.559784 
	C261.960052,345.858215 262.905396,337.138550 264.012665,328.439423 
	C265.557800,316.300140 267.260803,304.180817 268.780151,292.038422 
	C269.951233,282.679169 270.943451,273.297577 272.479919,263.946747 
	C276.608521,263.981293 280.281494,263.837463 283.934082,264.047546 
	C288.779907,264.326355 292.050018,266.853485 293.103699,271.689972 
	C293.593872,273.939789 293.802887,276.293213 293.807037,278.600281 
	C293.873566,315.739471 293.886505,352.878815 293.911621,390.018097 
	C293.907806,393.706543 293.904022,397.395020 293.950104,401.541748 
	C229.645767,402.000000 165.291550,402.000000 100.468658,402.000000 
z"/>
<path fill="#FFFFFF" opacity="1.000000" stroke="none" 
	d="
M294.353271,390.012207 
	C293.886505,352.878815 293.873566,315.739471 293.807037,278.600281 
	C293.802887,276.293213 293.593872,273.939789 293.103699,271.689972 
	C292.050018,266.853485 288.779907,264.326355 283.934082,264.047546 
	C280.281494,263.837463 276.608521,263.981293 272.536285,263.548096 
	C272.688049,259.705841 273.223877,256.278870 273.812408,252.860992 
	C276.553650,236.941238 267.860199,224.633484 252.744370,222.470398 
	C256.481995,218.637299 259.991669,215.065872 263.621643,211.865906 
	C267.472961,217.874908 272.904022,220.047134 279.457794,220.045349 
	C322.259796,220.033646 365.069946,219.570602 407.859222,220.309570 
	C421.908691,220.552200 431.302856,209.139603 431.117401,196.936081 
	C430.682159,168.297363 431.000427,139.647171 431.013702,111.001625 
	C432.723663,113.107872 434.932587,114.976952 436.064240,117.358040 
	C444.801758,135.742447 451.308136,154.958664 453.699158,175.168869 
	C456.899231,202.217667 455.665344,229.108047 447.753723,255.457886 
	C440.005432,281.263641 427.454865,304.467804 410.233124,325.095367 
	C395.850769,342.322052 378.612274,356.199951 359.184784,367.448456 
	C340.748596,378.123047 321.059967,385.299866 300.207123,389.402222 
	C298.432159,389.751404 296.600342,389.811798 294.353271,390.012207 
z"/>
<path fill="#BFD5EF" opacity="1.000000" stroke="none" 
	d="
M430.995453,110.533096 
	C431.000427,139.647171 430.682159,168.297363 431.117401,196.936081 
	C431.302856,209.139603 421.908691,220.552200 407.859222,220.309570 
	C365.069946,219.570602 322.259796,220.033646 279.457794,220.045349 
	C272.904022,220.047134 267.472961,217.874908 263.723724,211.514709 
	C267.382690,203.109070 267.469452,195.276947 265.475067,187.058395 
	C262.939117,176.608047 261.019318,166.008194 258.888000,154.977112 
	C258.965942,121.659210 258.968231,88.836975 259.024902,56.014828 
	C259.045654,43.980606 268.114960,35.073868 280.165070,34.953392 
	C304.794800,34.707142 329.423798,34.390320 354.053101,34.102566 
	C356.001617,34.393375 357.949127,34.928802 359.898773,34.936615 
	C376.727905,35.004002 393.557465,34.951588 410.386780,34.985634 
	C421.700684,35.008522 430.922028,44.192535 430.962677,55.577465 
	C431.027527,73.739616 430.978210,91.902176 430.995453,110.533096 
M396.364624,89.056274 
	C401.954620,84.996887 403.283905,79.432465 401.451416,73.140915 
	C399.728119,67.224541 394.312103,63.136391 387.939148,63.108894 
	C359.305206,62.985363 330.669983,62.947174 302.036469,63.106968 
	C294.119141,63.151150 288.125549,69.214752 287.971680,76.417992 
	C287.770630,85.830460 293.795532,91.953720 303.346252,91.959450 
	C330.815399,91.975937 358.285095,92.048058 385.752930,91.858116 
	C389.098724,91.834991 392.434418,90.345757 396.364624,89.056274 
M379.480743,105.998589 
	C353.987762,106.000130 328.494568,105.939972 303.001953,106.036057 
	C293.847839,106.070557 287.923676,111.905365 287.964661,120.375885 
	C288.005432,128.805161 294.097748,134.775803 303.004181,134.938019 
	C309.167145,135.050262 315.333710,134.963760 321.498688,134.963867 
	C342.992798,134.964264 364.487000,135.005768 385.980927,134.941330 
	C393.775879,134.917938 399.368225,131.288712 401.319824,125.327545 
	C403.384552,119.020836 401.825897,111.958000 395.735962,108.760384 
	C391.368286,106.467041 385.608978,106.824005 379.480743,105.998589 
M291.407288,167.962616 
	C287.321777,172.573196 286.730133,177.795685 289.162964,183.263611 
	C291.916504,189.452347 297.132782,191.877838 303.664917,191.879257 
	C331.138092,191.885193 358.611328,191.914215 386.084412,191.864716 
	C395.851776,191.847122 402.180054,185.981506 402.074402,177.290924 
	C401.972351,168.895645 395.602631,163.145966 386.165039,163.132202 
	C358.691925,163.092133 331.216461,162.946442 303.748077,163.309021 
	C299.789215,163.361282 295.864288,165.982849 291.407288,167.962616 
z"/>
<path fill="#FFFFFF" opacity="1.000000" stroke="none" 
	d="
M353.985962,33.748909 
	C329.423798,34.390320 304.794800,34.707142 280.165070,34.953392 
	C268.114960,35.073868 259.045654,43.980606 259.024902,56.014828 
	C258.968231,88.836975 258.965942,121.659210 258.609619,154.676651 
	C256.215790,141.138275 250.248962,129.742661 238.697021,121.536598 
	C236.165070,119.737991 234.075516,117.316628 231.822876,114.696068 
	C232.178986,102.119286 232.494400,90.028488 232.905548,77.564491 
	C232.902771,74.976730 232.804245,72.762177 232.820984,70.148232 
	C232.911774,68.922134 232.907318,68.094276 232.859848,67.268898 
	C232.250641,56.677170 224.703217,47.538197 215.339935,46.046055 
	C203.604218,44.175835 193.501175,49.706028 189.944260,60.822659 
	C184.605972,77.506691 179.823090,94.368439 174.496140,111.287384 
	C166.561615,115.648460 157.896561,118.604591 152.957199,126.402145 
	C147.027771,135.762695 141.604218,145.443726 135.605301,155.133026 
	C118.865578,159.030457 113.766495,165.594650 114.053429,182.859055 
	C114.116455,186.650696 114.774338,190.429413 114.921768,194.223282 
	C115.359283,205.482758 115.584213,216.751007 116.081802,228.007446 
	C116.357094,234.235107 117.011650,240.445999 117.463791,246.259979 
	C120.016266,247.046463 122.158989,247.706680 124.276276,248.715576 
	C122.052269,251.672211 119.720451,254.181717 117.697601,256.919495 
	C116.100136,259.081543 114.882584,261.524292 113.496292,263.842377 
	C103.354614,264.504272 100.100655,267.980103 100.078392,278.191925 
	C100.063950,284.816528 100.061577,291.441132 100.022308,298.533813 
	C98.817024,297.981415 97.260651,297.181458 96.526474,295.907654 
	C84.275383,274.650940 76.234650,251.769775 73.276459,227.519730 
	C68.852707,191.255554 73.214211,156.046738 88.680573,122.482834 
	C98.742950,100.646248 111.971634,81.013191 129.245529,64.458160 
	C157.865417,37.029308 191.622589,19.031406 231.113678,13.092990 
	C243.681793,11.203076 256.510376,10.073740 269.203491,10.202298 
	C291.070343,10.423769 312.325500,14.912848 332.734802,22.924723 
	C338.592224,25.224119 344.301880,27.911522 350.013855,30.561983 
	C351.445465,31.226290 352.623993,32.436134 353.985962,33.748909 
z"/>
<path fill="#BFD5EF" opacity="1.000000" stroke="none" 
	d="
M124.301712,248.366898 
	C122.158989,247.706680 120.016266,247.046463 117.463791,246.259979 
	C117.011650,240.445999 116.357094,234.235107 116.081802,228.007446 
	C115.584213,216.751007 115.359283,205.482758 114.921768,194.223282 
	C114.774338,190.429413 114.116455,186.650696 114.053429,182.859055 
	C113.766495,165.594650 118.865578,159.030457 135.967773,155.259186 
	C146.489166,156.137222 152.826584,161.505020 157.629166,169.957764 
	C165.740433,184.234024 174.509079,198.138504 183.123703,212.123917 
	C183.869980,213.335449 185.433685,214.585770 186.775787,214.792694 
	C192.162857,215.623245 197.612183,216.049957 203.458282,216.749054 
	C209.245682,217.485031 214.613327,218.097931 220.300079,218.868591 
	C230.499329,226.736862 241.141205,227.890564 252.516434,222.732086 
	C267.860199,224.633484 276.553650,236.941238 273.812408,252.860992 
	C273.223877,256.278870 272.688049,259.705841 272.071564,263.527283 
	C270.943451,273.297577 269.951233,282.679169 268.780151,292.038422 
	C267.260803,304.180817 265.557800,316.300140 264.012665,328.439423 
	C262.905396,337.138550 261.960052,345.858215 260.870911,354.559784 
	C260.561310,357.033203 259.555847,358.924408 256.140228,358.213867 
	C255.799484,358.299500 255.772934,358.283539 255.760605,358.011597 
	C255.492172,357.495972 255.236053,357.252289 254.680054,356.843018 
	C245.458893,352.585815 236.537628,348.494232 227.616379,344.402618 
	C221.417816,341.788940 224.008286,336.401978 224.302216,332.263702 
	C225.190384,319.759308 226.701340,307.298218 228.022339,294.825806 
	C228.891068,286.623688 229.885559,278.434845 230.742981,270.231628 
	C230.929123,268.450745 230.770218,266.633850 230.770218,263.983643 
	C208.715820,263.983643 186.852051,263.983643 164.509674,263.528992 
	C163.817520,246.642853 156.196564,197.366867 152.841644,195.181290 
	C152.841644,212.952454 152.841644,230.230728 152.384216,247.496582 
	C149.941360,247.481979 147.953568,247.415665 145.970947,247.489029 
	C138.746933,247.756424 131.524643,248.070450 124.301712,248.366898 
z"/>
<path fill="#040506" opacity="1.000000" stroke="none" 
	d="
M227.385223,344.653564 
	C236.537628,348.494232 245.458893,352.585815 254.714645,357.113953 
	C255.290405,357.794800 255.531677,358.039185 255.772934,358.283539 
	C255.772934,358.283539 255.799484,358.299500 255.781250,358.304626 
	C259.203888,362.052246 262.661499,365.779602 266.080933,369.541626 
	C269.495697,373.298523 272.872192,377.090149 276.265472,380.866577 
	C275.802155,381.371735 275.338837,381.876892 274.875519,382.382080 
	C256.201874,373.909576 237.528244,365.437073 217.871796,356.518646 
	C221.266235,352.271484 224.210159,348.587982 227.385223,344.653564 
z"/>
<path fill="#020202" opacity="1.000000" stroke="none" 
	d="
M124.276276,248.715576 
	C131.524643,248.070450 138.746933,247.756424 145.970947,247.489029 
	C147.953568,247.415665 149.941360,247.481979 152.479614,247.890778 
	C153.609070,253.492889 154.185669,258.688416 154.762253,263.883972 
	C141.296082,263.905609 127.829903,263.927216 113.930008,263.895630 
	C114.882584,261.524292 116.100136,259.081543 117.697601,256.919495 
	C119.720451,254.181717 122.052269,251.672211 124.276276,248.715576 
z"/>
<path fill="#96B5D1" opacity="1.000000" stroke="none" 
	d="
M155.227631,263.915161 
	C154.185669,258.688416 153.609070,253.492889 152.937057,247.903168 
	C152.841644,230.230728 152.841644,212.952454 152.841644,195.181290 
	C156.196564,197.366867 163.817520,246.642853 164.044678,263.524597 
	C161.269852,263.965363 158.481430,263.955872 155.227631,263.915161 
z"/>
<path fill="#ED6E56" opacity="1.000000" stroke="none" 
	d="
M252.744370,222.470398 
	C241.141205,227.890564 230.499329,226.736862 220.243958,218.548523 
	C218.138275,216.108871 216.604431,213.914841 214.629013,212.242386 
	C211.996552,210.013687 209.020645,208.190689 206.192261,206.193420 
	C205.141006,209.670944 204.089752,213.148453 203.038498,216.625977 
	C197.612183,216.049957 192.162857,215.623245 186.775787,214.792694 
	C185.433685,214.585770 183.869980,213.335449 183.123703,212.123917 
	C174.509079,198.138504 165.740433,184.234024 157.629166,169.957764 
	C152.826584,161.505020 146.489166,156.137222 136.324081,155.112137 
	C141.604218,145.443726 147.027771,135.762695 152.957199,126.402145 
	C157.896561,118.604591 166.561615,115.648460 174.899506,111.345016 
	C181.113556,109.183937 186.616348,107.098007 192.103561,105.465240 
	C190.932358,113.894691 194.308319,120.904388 197.069122,127.957169 
	C199.137894,133.242142 206.306107,135.542801 210.237061,131.555344 
	C216.390259,125.313713 223.174393,118.945076 223.343338,109.056030 
	C226.366760,111.176369 229.074493,113.179214 231.782211,115.182068 
	C234.075516,117.316628 236.165070,119.737991 238.697021,121.536598 
	C250.248962,129.742661 256.215790,141.138275 258.555481,155.172333 
	C261.019318,166.008194 262.939117,176.608047 265.475067,187.058395 
	C267.469452,195.276947 267.382690,203.109070 263.603394,211.143265 
	C259.991669,215.065872 256.481995,218.637299 252.744370,222.470398 
M199.194519,149.154205 
	C197.254364,149.461349 195.316101,149.781189 193.373581,150.072540 
	C190.641617,150.482346 187.629578,151.123703 188.131348,154.605072 
	C188.731918,158.771820 187.389236,163.720703 191.791473,166.696915 
	C192.429016,167.127914 193.682983,166.571045 194.643509,166.622925 
	C195.519653,166.670242 196.384689,166.923401 197.155731,167.921753 
	C196.823822,171.138489 196.603088,175.207794 200.535751,175.464203 
	C206.574982,175.857956 212.970245,181.246063 218.809479,174.925583 
	C219.014999,174.703125 219.047592,174.320908 219.965500,174.014191 
	C223.222321,174.531433 225.044754,173.134232 225.503250,169.886856 
	C225.758102,168.081680 225.817337,166.209808 226.357880,164.491669 
	C227.732864,160.121262 226.001923,158.151840 221.874603,157.084946 
	C222.307098,154.460983 222.740997,151.837234 223.171829,149.212997 
	C224.567642,140.711212 224.165939,140.135727 215.905914,138.793777 
	C203.281845,136.742844 203.281845,136.742828 199.194519,149.154205 
z"/>
<path fill="#FEFEFF" opacity="1.000000" stroke="none" 
	d="
M396.069702,89.296127 
	C392.434418,90.345757 389.098724,91.834991 385.752930,91.858116 
	C358.285095,92.048058 330.815399,91.975937 303.346252,91.959450 
	C293.795532,91.953720 287.770630,85.830460 287.971680,76.417992 
	C288.125549,69.214752 294.119141,63.151150 302.036469,63.106968 
	C330.669983,62.947174 359.305206,62.985363 387.939148,63.108894 
	C394.312103,63.136391 399.728119,67.224541 401.451416,73.140915 
	C403.283905,79.432465 401.954620,84.996887 396.069702,89.296127 
z"/>
<path fill="#FEFEFF" opacity="1.000000" stroke="none" 
	d="
M379.975647,105.998581 
	C385.608978,106.824005 391.368286,106.467041 395.735962,108.760384 
	C401.825897,111.958000 403.384552,119.020836 401.319824,125.327545 
	C399.368225,131.288712 393.775879,134.917938 385.980927,134.941330 
	C364.487000,135.005768 342.992798,134.964264 321.498688,134.963867 
	C315.333710,134.963760 309.167145,135.050262 303.004181,134.938019 
	C294.097748,134.775803 288.005432,128.805161 287.964661,120.375885 
	C287.923676,111.905365 293.847839,106.070557 303.001953,106.036057 
	C328.494568,105.939972 353.987762,106.000130 379.975647,105.998581 
z"/>
<path fill="#3D56F7" opacity="1.000000" stroke="none" 
	d="
M291.665466,167.689011 
	C295.864288,165.982849 299.789215,163.361282 303.748077,163.309021 
	C331.216461,162.946442 358.691925,163.092133 386.165039,163.132202 
	C395.602631,163.145966 401.972351,168.895645 402.074402,177.290924 
	C402.180054,185.981506 395.851776,191.847122 386.084412,191.864716 
	C358.611328,191.914215 331.138092,191.885193 303.664917,191.879257 
	C297.132782,191.877838 291.916504,189.452347 289.162964,183.263611 
	C286.730133,177.795685 287.321777,172.573196 291.665466,167.689011 
z"/>
<path fill="#F2B56B" opacity="1.000000" stroke="none" 
	d="
M223.027649,108.938545 
	C223.174393,118.945076 216.390259,125.313713 210.237061,131.555344 
	C206.306107,135.542801 199.137894,133.242142 197.069122,127.957169 
	C194.308319,120.904388 190.932358,113.894691 192.348587,105.220375 
	C193.603607,100.907204 195.909225,97.054161 195.305923,93.728882 
	C194.216766,87.725601 191.247849,82.082619 189.372803,76.190880 
	C188.814285,74.435913 189.286606,72.352890 189.286606,70.420174 
	C189.693314,70.422249 190.100037,70.424324 190.506744,70.426392 
	C190.992661,71.937576 191.478592,73.448761 192.252533,75.855698 
	C195.929169,71.686050 199.037384,68.098900 202.213486,64.572884 
	C207.631454,58.558052 213.269791,58.246754 219.521149,63.562050 
	C221.924118,65.605209 224.125748,67.982170 226.794922,69.578712 
	C228.388306,70.531776 230.710907,70.265678 232.705719,70.547623 
	C232.804245,72.762177 232.902771,74.976730 232.594650,77.752098 
	C231.541473,79.893097 230.461884,81.436943 230.325699,83.059944 
	C229.820038,89.086449 227.394470,94.035118 222.547516,98.151443 
	C217.172363,99.524101 212.107269,100.732101 206.859604,101.714989 
	C206.119766,101.461884 205.562515,101.433891 205.005264,101.405899 
	C205.000397,101.570885 204.995514,101.735870 204.990646,101.900848 
	C205.635895,101.960197 206.281143,102.019554 207.006836,102.449600 
	C212.076538,106.330147 217.423096,105.379440 222.867035,104.479172 
	C222.966797,106.232574 222.997223,107.585556 223.027649,108.938545 
z"/>
<path fill="#090706" opacity="1.000000" stroke="none" 
	d="
M232.820969,70.148239 
	C230.710907,70.265678 228.388306,70.531776 226.794922,69.578712 
	C224.125748,67.982170 221.924118,65.605209 219.521149,63.562050 
	C213.269791,58.246754 207.631454,58.558052 202.213486,64.572884 
	C199.037384,68.098900 195.929169,71.686050 192.252533,75.855698 
	C191.478592,73.448761 190.992661,71.937576 190.506744,70.426392 
	C190.100037,70.424324 189.693314,70.422249 189.286606,70.420174 
	C189.286606,72.352890 188.814285,74.435913 189.372803,76.190880 
	C191.247849,82.082619 194.216766,87.725601 195.305923,93.728882 
	C195.909225,97.054161 193.603607,100.907204 192.364166,104.767212 
	C186.616348,107.098007 181.113556,109.183937 175.207397,111.212242 
	C179.823090,94.368439 184.605972,77.506691 189.944260,60.822659 
	C193.501175,49.706028 203.604218,44.175835 215.339935,46.046055 
	C224.703217,47.538197 232.250641,56.677170 232.859848,67.268898 
	C232.907318,68.094276 232.911774,68.922134 232.820969,70.148239 
z"/>
<path fill="#100D0B" opacity="1.000000" stroke="none" 
	d="
M222.857605,97.986786 
	C227.394470,94.035118 229.820038,89.086449 230.325699,83.059944 
	C230.461884,81.436943 231.541473,79.893097 232.498901,78.125305 
	C232.494400,90.028488 232.178986,102.119286 231.822876,114.696075 
	C229.074493,113.179214 226.366760,111.176369 223.343338,109.056030 
	C222.997223,107.585556 222.966797,106.232574 222.930328,104.047241 
	C222.902054,101.472191 222.879822,99.729485 222.857605,97.986786 
z"/>
<path fill="#D15242" opacity="1.000000" stroke="none" 
	d="
M203.458282,216.749054 
	C204.089752,213.148453 205.141006,209.670944 206.192261,206.193420 
	C209.020645,208.190689 211.996552,210.013687 214.629013,212.242386 
	C216.604431,213.914841 218.138275,216.108871 219.924835,218.390778 
	C214.613327,218.097931 209.245682,217.485031 203.458282,216.749054 
z"/>
<path fill="#95C8F3" opacity="1.000000" stroke="none" 
	d="
M255.760605,358.011597 
	C255.531677,358.039185 255.290405,357.794800 255.014557,357.279541 
	C255.236053,357.252289 255.492172,357.495972 255.760605,358.011597 
z"/>
<path fill="#FEFBFA" opacity="1.000000" stroke="none" 
	d="
M219.160767,174.013153 
	C219.047592,174.320908 219.014999,174.703125 218.809479,174.925583 
	C212.970245,181.246063 206.574982,175.857956 200.535751,175.464203 
	C196.603088,175.207794 196.823822,171.138489 197.462250,167.205048 
	C198.507996,160.671417 199.247208,154.854492 199.986420,149.037552 
	C203.281845,136.742828 203.281845,136.742844 215.905914,138.793777 
	C224.165939,140.135727 224.567642,140.711212 223.171829,149.212997 
	C222.740997,151.837234 222.307098,154.460983 221.411926,157.428101 
	C217.535507,157.192139 214.138733,156.448486 210.701813,156.094482 
	C208.575653,155.875488 206.388428,156.249100 204.228622,156.356674 
	C204.968063,159.136002 205.405563,162.051514 206.572327,164.638092 
	C207.169922,165.962875 209.053497,166.724594 210.388290,167.696289 
	C213.301453,169.817001 216.235336,171.909271 219.160767,174.013153 
z"/>
<path fill="#F5B870" opacity="1.000000" stroke="none" 
	d="
M219.563141,174.013672 
	C216.235336,171.909271 213.301453,169.817001 210.388290,167.696289 
	C209.053497,166.724594 207.169922,165.962875 206.572327,164.638092 
	C205.405563,162.051514 204.968063,159.136002 204.228622,156.356674 
	C206.388428,156.249100 208.575653,155.875488 210.701813,156.094482 
	C214.138733,156.448486 217.535507,157.192139 221.324768,157.832520 
	C226.001923,158.151840 227.732864,160.121262 226.357880,164.491669 
	C225.817337,166.209808 225.758102,168.081680 225.503250,169.886856 
	C225.044754,173.134232 223.222321,174.531433 219.563141,174.013672 
z"/>
<path fill="#F5B46C" opacity="1.000000" stroke="none" 
	d="
M199.590469,149.095886 
	C199.247208,154.854492 198.507996,160.671417 197.511688,166.787109 
	C196.384689,166.923401 195.519653,166.670242 194.643509,166.622925 
	C193.682983,166.571045 192.429016,167.127914 191.791473,166.696915 
	C187.389236,163.720703 188.731918,158.771820 188.131348,154.605072 
	C187.629578,151.123703 190.641617,150.482346 193.373581,150.072540 
	C195.316101,149.781189 197.254364,149.461349 199.590469,149.095886 
z"/>
<path fill="#D9954D" opacity="1.000000" stroke="none" 
	d="
M222.547516,98.151443 
	C222.879822,99.729485 222.902054,101.472191 222.860992,103.646820 
	C217.423096,105.379440 212.076538,106.330147 207.036911,102.415833 
	C206.986542,102.011383 207.042191,101.940102 207.042191,101.940102 
	C212.107269,100.732101 217.172363,99.524101 222.547516,98.151443 
z"/>
<path fill="#D9954D" opacity="1.000000" stroke="none" 
	d="
M206.956467,102.045143 
	C206.281143,102.019554 205.635895,101.960197 204.990646,101.900848 
	C204.995514,101.735870 205.000397,101.570885 205.005264,101.405899 
	C205.562515,101.433891 206.119766,101.461884 206.859604,101.714989 
	C207.042191,101.940102 206.986542,102.011383 206.956467,102.045143 
z"/>
</svg>