<svg xmlns="http://www.w3.org/2000/svg" xmlns:xlink="http://www.w3.org/1999/xlink" width="500" zoomAndPan="magnify" viewBox="0 0 375 374.999991" height="500" preserveAspectRatio="xMidYMid meet" version="1.0"><defs><g/><clipPath id="76e6c54092"><path d="M 2.5625 100.351562 L 175.933594 100.351562 L 175.933594 259.714844 L 2.5625 259.714844 Z M 2.5625 100.351562 " clip-rule="nonzero"/></clipPath><clipPath id="cb6ff950ad"><path d="M 89.28125 259.9375 C 75.121094 259.9375 63.253906 249.996094 60.582031 236.390625 C 59.3125 236.144531 58.320312 235.0625 58.246094 233.710938 C 58.167969 232.117188 59.394531 230.765625 60.984375 230.683594 L 61.082031 230.683594 C 62.660156 230.683594 63.929688 231.878906 64.011719 233.425781 C 64.066406 234.582031 63.441406 235.601562 62.480469 236.113281 C 65.003906 248.785156 76.070312 258.023438 89.273438 258.023438 C 104.347656 258.023438 116.613281 245.757812 116.613281 230.683594 L 116.613281 202.019531 C 115.488281 201.621094 114.683594 200.5625 114.683594 199.308594 C 114.683594 197.714844 115.976562 196.417969 117.570312 196.417969 C 119.167969 196.417969 120.460938 197.714844 120.460938 199.308594 C 120.460938 200.5625 119.65625 201.621094 118.53125 202.019531 L 118.53125 230.675781 C 118.53125 246.808594 105.414062 259.925781 89.28125 259.925781 Z M 92.15625 255.753906 C 90.65625 255.753906 89.386719 254.589844 89.28125 253.074219 C 89.167969 251.488281 90.363281 250.105469 91.949219 249.988281 L 92.089844 249.980469 C 93.203125 249.980469 94.132812 250.558594 94.636719 251.414062 C 103.964844 249.003906 110.703125 240.546875 110.703125 230.683594 L 110.703125 190.894531 C 110.703125 190.363281 111.132812 189.933594 111.664062 189.933594 L 127.085938 189.933594 C 127.484375 188.808594 128.542969 188.003906 129.796875 188.003906 C 131.390625 188.003906 132.6875 189.296875 132.6875 190.894531 C 132.6875 192.488281 131.390625 193.78125 129.796875 193.78125 C 128.542969 193.78125 127.484375 192.976562 127.085938 191.855469 L 112.632812 191.855469 L 112.632812 230.675781 C 112.632812 241.46875 105.234375 250.714844 95.011719 253.292969 C 94.816406 254.597656 93.742188 255.636719 92.367188 255.734375 L 92.226562 255.742188 Z M 45.992188 227.6875 C 44.394531 227.6875 43.101562 226.394531 43.101562 224.800781 C 43.101562 223.203125 44.394531 221.910156 45.992188 221.910156 C 47.242188 221.910156 48.300781 222.714844 48.699219 223.839844 L 65.929688 223.839844 L 65.929688 193.320312 C 64.808594 192.921875 64.003906 191.863281 64.003906 190.609375 C 64.003906 189.011719 65.296875 187.71875 66.890625 187.71875 C 68.488281 187.71875 69.78125 189.011719 69.78125 190.609375 C 69.78125 191.863281 68.976562 192.921875 67.851562 193.320312 L 67.851562 224.800781 C 67.851562 225.328125 67.421875 225.761719 66.890625 225.761719 L 48.699219 225.761719 C 48.300781 226.882812 47.242188 227.6875 45.992188 227.6875 Z M 49.863281 218.476562 C 48.269531 218.476562 46.976562 217.183594 46.976562 215.585938 C 46.976562 213.992188 48.269531 212.699219 49.863281 212.699219 C 51.117188 212.699219 52.175781 213.503906 52.574219 214.625 L 60.03125 214.625 L 60.03125 182.289062 C 58.90625 181.890625 58.101562 180.832031 58.101562 179.582031 C 58.101562 177.984375 59.394531 176.691406 60.992188 176.691406 C 62.585938 176.691406 63.878906 177.984375 63.878906 179.582031 C 63.878906 180.832031 63.074219 181.890625 61.949219 182.289062 L 61.949219 215.585938 C 61.949219 216.117188 61.519531 216.546875 60.992188 216.546875 L 52.574219 216.546875 C 52.175781 217.671875 51.117188 218.476562 49.863281 218.476562 Z M 91.550781 239.179688 C 88.140625 239.179688 85.375 236.40625 85.375 232.996094 L 85.375 164.351562 L 86.335938 163.921875 L 96.777344 163.921875 C 97.304688 163.921875 97.738281 164.351562 97.738281 164.882812 L 97.738281 219.175781 C 98.859375 219.574219 99.667969 220.632812 99.667969 221.886719 C 99.667969 223.480469 98.371094 224.777344 96.777344 224.777344 C 95.183594 224.777344 93.886719 223.480469 93.886719 221.886719 C 93.886719 220.632812 94.695312 219.574219 95.816406 219.175781 L 95.816406 165.84375 L 87.289062 165.84375 L 87.289062 232.996094 C 87.289062 235.347656 89.199219 237.261719 91.550781 237.261719 L 93.308594 236.871094 C 93.066406 236.285156 93 235.617188 93.195312 234.957031 C 93.5625 233.695312 94.71875 232.882812 95.964844 232.882812 L 96.5 232.921875 C 98.300781 233.453125 99.179688 235.054688 98.730469 236.585938 C 98.363281 237.847656 97.207031 238.660156 95.964844 238.660156 L 95.417969 238.621094 L 94.96875 238.488281 L 94.652344 238.34375 C 93.726562 238.878906 92.652344 239.179688 91.550781 239.179688 Z M 48.546875 195.019531 C 46.949219 195.019531 45.65625 193.726562 45.65625 192.128906 C 45.65625 190.878906 46.460938 189.820312 47.585938 189.421875 L 47.585938 171.742188 L 31.8125 171.742188 C 21.019531 171.742188 11.773438 164.34375 9.195312 154.121094 C 7.890625 153.925781 6.851562 152.851562 6.753906 151.476562 C 6.640625 149.890625 7.835938 148.507812 9.421875 148.390625 L 9.496094 148.382812 L 9.632812 148.382812 C 11.132812 148.382812 12.402344 149.546875 12.507812 151.0625 C 12.589844 152.191406 11.996094 153.210938 11.082031 153.746094 C 13.492188 163.074219 21.949219 169.820312 31.8125 169.820312 L 48.546875 169.820312 C 49.074219 169.820312 49.507812 170.253906 49.507812 170.78125 L 49.507812 189.421875 C 50.628906 189.820312 51.4375 190.878906 51.4375 192.128906 C 51.4375 193.726562 50.140625 195.019531 48.546875 195.019531 Z M 59.183594 156.847656 L 59.183594 148.328125 L 34.765625 148.328125 L 34.765625 156.847656 Z M 33.808594 158.769531 L 32.847656 158.335938 L 32.847656 146.835938 L 33.808594 146.40625 L 60.144531 146.40625 C 60.671875 146.40625 61.105469 146.835938 61.105469 147.367188 L 61.105469 157.808594 C 61.105469 158.335938 60.671875 158.769531 60.144531 158.769531 Z M 81.019531 158.769531 L 80.058594 158.335938 L 80.058594 147.367188 C 80.058594 146.835938 80.492188 146.40625 81.019531 146.40625 L 125.371094 146.40625 C 125.769531 145.28125 126.824219 144.476562 128.078125 144.476562 C 129.675781 144.476562 130.96875 145.769531 130.96875 147.367188 C 130.96875 148.960938 129.675781 150.257812 128.078125 150.257812 C 126.824219 150.257812 125.769531 149.449219 125.371094 148.328125 L 81.980469 148.328125 L 81.980469 156.847656 L 148.050781 156.847656 C 150.40625 156.847656 152.316406 154.9375 152.316406 152.582031 L 151.925781 150.824219 C 151.578125 150.972656 151.195312 151.054688 150.796875 151.054688 L 150.273438 151.019531 C 148.484375 150.5 147.605469 148.898438 148.050781 147.367188 C 148.417969 146.105469 149.574219 145.292969 150.820312 145.292969 L 151.363281 145.332031 C 153.164062 145.859375 154.042969 147.464844 153.59375 148.996094 L 153.546875 149.171875 L 153.398438 149.5 C 153.9375 150.425781 154.246094 151.492188 154.246094 152.601562 C 154.246094 156.011719 151.46875 158.785156 148.058594 158.785156 Z M 79.855469 229.339844 C 78.261719 229.339844 76.96875 228.046875 76.96875 226.453125 C 76.96875 225.199219 77.773438 224.140625 78.894531 223.742188 L 78.894531 165.84375 L 72.792969 165.84375 C 72.261719 165.84375 71.832031 165.410156 71.832031 164.882812 L 71.832031 139.953125 C 71.832031 139.421875 72.261719 138.992188 72.792969 138.992188 L 135.625 138.992188 C 136.023438 137.867188 137.082031 137.0625 138.335938 137.0625 C 139.929688 137.0625 141.222656 138.355469 141.222656 139.953125 C 141.222656 141.546875 139.929688 142.839844 138.335938 142.839844 C 137.082031 142.839844 136.023438 142.035156 135.625 140.914062 L 73.753906 140.914062 L 73.753906 163.921875 L 79.855469 163.921875 C 80.386719 163.921875 80.816406 164.351562 80.816406 164.882812 L 80.816406 223.75 C 81.941406 224.148438 82.746094 225.207031 82.746094 226.460938 C 82.746094 228.054688 81.453125 229.351562 79.855469 229.351562 Z M 31.8125 165.84375 C 22.191406 165.84375 14.363281 158.011719 14.363281 148.390625 C 14.363281 138.773438 22.191406 130.941406 31.8125 130.941406 L 46.558594 130.941406 C 46.960938 129.820312 48.015625 129.011719 49.269531 129.011719 C 50.867188 129.011719 52.160156 130.308594 52.160156 131.902344 C 52.160156 133.496094 50.867188 134.792969 49.269531 134.792969 C 48.015625 134.792969 46.960938 133.984375 46.558594 132.863281 L 31.8125 132.863281 C 23.25 132.863281 16.285156 139.828125 16.285156 148.390625 C 16.285156 156.953125 23.25 163.921875 31.8125 163.921875 L 65.929688 163.921875 L 65.929688 140.914062 L 32.617188 140.914062 C 28.785156 140.914062 25.660156 144.039062 25.660156 147.871094 L 25.660156 150.320312 C 26.78125 150.71875 27.589844 151.777344 27.589844 153.03125 C 27.589844 154.625 26.292969 155.921875 24.699219 155.921875 C 23.105469 155.921875 21.808594 154.625 21.808594 153.03125 C 21.808594 151.777344 22.617188 150.71875 23.738281 150.320312 L 23.738281 147.863281 C 23.738281 142.972656 27.71875 138.984375 32.609375 138.984375 L 66.890625 138.984375 C 67.421875 138.984375 67.851562 139.414062 67.851562 139.945312 L 67.851562 164.882812 C 67.851562 165.410156 67.421875 165.84375 66.890625 165.84375 Z M 89.28125 248.125 C 79.660156 248.125 71.832031 240.296875 71.832031 230.675781 L 71.832031 171.742188 L 57.101562 171.742188 C 56.703125 172.867188 55.644531 173.671875 54.390625 173.671875 C 52.792969 173.671875 51.5 172.378906 51.5 170.78125 C 51.5 169.1875 52.792969 167.894531 54.390625 167.894531 C 55.644531 167.894531 56.703125 168.699219 57.101562 169.820312 L 72.792969 169.820312 C 73.320312 169.820312 73.753906 170.253906 73.753906 170.78125 L 73.753906 230.675781 C 73.753906 239.238281 80.71875 246.207031 89.28125 246.207031 C 97.84375 246.207031 104.808594 239.238281 104.808594 230.675781 L 104.808594 164.882812 C 104.808594 164.351562 105.242188 163.921875 105.769531 163.921875 L 146.75 163.921875 C 155.3125 163.921875 162.277344 156.953125 162.277344 148.390625 C 162.277344 139.828125 155.3125 132.863281 146.75 132.863281 L 72.792969 132.863281 C 72.261719 132.863281 71.832031 132.433594 71.832031 131.902344 L 71.832031 126.960938 L 37.414062 126.960938 C 37.011719 128.085938 35.957031 128.890625 34.703125 128.890625 C 33.105469 128.890625 31.8125 127.597656 31.8125 126.003906 C 31.8125 124.40625 33.105469 123.113281 34.703125 123.113281 C 35.957031 123.113281 37.011719 123.917969 37.414062 125.042969 L 72.792969 125.042969 C 73.320312 125.042969 73.753906 125.472656 73.753906 126.003906 L 73.753906 130.941406 L 146.742188 130.941406 C 156.363281 130.941406 164.191406 138.773438 164.191406 148.390625 C 164.191406 158.011719 156.363281 165.84375 146.742188 165.84375 L 106.730469 165.84375 L 106.730469 230.675781 C 106.730469 240.296875 98.902344 248.125 89.28125 248.125 Z M 42.320312 179.570312 C 41.066406 179.570312 40.007812 178.765625 39.609375 177.644531 L 31.8125 177.644531 C 15.679688 177.652344 2.5625 164.523438 2.5625 148.390625 C 2.5625 132.261719 15.679688 119.140625 31.8125 119.140625 L 68.828125 119.140625 C 69.226562 118.019531 70.285156 117.210938 71.539062 117.210938 C 73.132812 117.210938 74.429688 118.507812 74.429688 120.101562 C 74.429688 121.695312 73.132812 122.992188 71.539062 122.992188 C 70.285156 122.992188 69.226562 122.183594 68.828125 121.0625 L 31.8125 121.0625 C 16.738281 121.0625 4.480469 133.320312 4.480469 148.390625 C 4.480469 163.464844 16.738281 175.730469 31.8125 175.730469 L 39.601562 175.730469 C 40 174.609375 41.058594 173.800781 42.3125 173.800781 C 43.90625 173.800781 45.203125 175.097656 45.203125 176.691406 C 45.203125 178.285156 43.90625 179.582031 42.3125 179.582031 Z M 126.394531 179.570312 C 124.800781 179.570312 123.503906 178.277344 123.503906 176.683594 C 123.503906 175.085938 124.800781 173.792969 126.394531 173.792969 C 127.648438 173.792969 128.707031 174.597656 129.105469 175.722656 L 146.75 175.722656 C 161.824219 175.722656 174.089844 163.457031 174.089844 148.382812 C 174.089844 133.3125 161.824219 121.046875 146.75 121.046875 L 90.601562 121.046875 C 90.070312 121.046875 89.640625 120.613281 89.640625 120.085938 L 89.640625 110.449219 C 88.515625 110.050781 87.710938 108.992188 87.710938 107.738281 C 87.710938 106.144531 89.003906 104.847656 90.601562 104.847656 C 92.195312 104.847656 93.488281 106.144531 93.488281 107.738281 C 93.488281 108.992188 92.683594 110.050781 91.558594 110.449219 L 91.558594 119.140625 L 146.75 119.140625 C 162.882812 119.140625 176 132.261719 176 148.390625 C 176 164.523438 162.882812 177.644531 146.75 177.644531 L 129.105469 177.644531 C 128.707031 178.765625 127.648438 179.570312 126.394531 179.570312 Z M 117.582031 184.820312 C 115.984375 184.820312 114.691406 183.527344 114.691406 181.933594 C 114.691406 180.679688 115.496094 179.621094 116.621094 179.222656 L 116.621094 170.78125 C 116.621094 170.253906 117.050781 169.820312 117.582031 169.820312 L 146.75 169.820312 C 158.566406 169.820312 168.179688 160.210938 168.179688 148.390625 C 168.179688 136.574219 158.566406 126.960938 146.75 126.960938 L 82.0625 126.960938 C 81.535156 126.960938 81.101562 126.53125 81.101562 126.003906 L 81.101562 106.214844 C 79.980469 105.816406 79.171875 104.757812 79.171875 103.507812 C 79.179688 101.910156 80.46875 100.617188 82.0625 100.617188 C 83.65625 100.617188 84.953125 101.910156 84.953125 103.507812 C 84.953125 104.757812 84.144531 105.816406 83.023438 106.214844 L 83.023438 125.042969 L 146.742188 125.042969 C 159.617188 125.042969 170.09375 135.515625 170.09375 148.390625 C 170.09375 161.269531 159.617188 171.742188 146.742188 171.742188 L 118.53125 171.742188 L 118.53125 179.230469 C 119.65625 179.628906 120.460938 180.6875 120.460938 181.941406 C 120.460938 183.535156 119.167969 184.828125 117.570312 184.828125 Z M 117.582031 184.820312 " clip-rule="nonzero"/></clipPath></defs><rect x="-37.5" width="450" fill="#ffffff" y="-37.499999" height="449.999989" fill-opacity="1"/><rect x="-37.5" width="450" fill="#f9fafb" y="-37.499999" height="449.999989" fill-opacity="1"/><g clip-path="url(#76e6c54092)"><g clip-path="url(#cb6ff950ad)"><path fill="#045f70" d="M 175.933594 100.617188 L 2.5625 100.617188 L 2.5625 259.714844 L 175.933594 259.714844 Z M 175.933594 100.617188 " fill-opacity="1" fill-rule="nonzero"/></g></g><g fill="#045f70" fill-opacity="1"><g transform="translate(123.227263, 233.653045)"><g><path d="M 17.671875 -34.203125 C 20.921875 -34.203125 23.4375 -33.742188 25.21875 -32.828125 C 27.007812 -31.910156 28.316406 -30.710938 29.140625 -29.234375 C 29.960938 -27.765625 30.441406 -26.070312 30.578125 -24.15625 C 30.710938 -22.238281 30.78125 -20.273438 30.78125 -18.265625 L 30.78125 0 L 25.359375 0 L 25.359375 -3.28125 C 24.066406 -2.03125 22.414062 -1.035156 20.40625 -0.296875 C 18.40625 0.429688 16.398438 0.796875 14.390625 0.796875 C 12.472656 0.796875 10.773438 0.460938 9.296875 -0.203125 C 7.828125 -0.867188 6.601562 -1.738281 5.625 -2.8125 C 4.644531 -3.882812 3.90625 -5.085938 3.40625 -6.421875 C 2.914062 -7.765625 2.671875 -9.125 2.671875 -10.5 C 2.671875 -11.925781 2.9375 -13.351562 3.46875 -14.78125 C 4.007812 -16.21875 4.816406 -17.503906 5.890625 -18.640625 C 6.960938 -19.773438 8.28125 -20.695312 9.84375 -21.40625 C 11.40625 -22.125 13.1875 -22.484375 15.1875 -22.484375 C 17.195312 -22.484375 19.101562 -22.09375 20.90625 -21.3125 C 22.71875 -20.53125 24.203125 -19.425781 25.359375 -18 L 25.359375 -20.875 C 25.359375 -24.539062 24.8125 -27.265625 23.71875 -29.046875 C 22.625 -30.828125 20.628906 -31.71875 17.734375 -31.71875 C 16.484375 -31.71875 15.390625 -31.5625 14.453125 -31.25 C 13.515625 -30.9375 12.675781 -30.5 11.9375 -29.9375 C 11.207031 -29.382812 10.53125 -28.695312 9.90625 -27.875 C 9.28125 -27.050781 8.65625 -26.125 8.03125 -25.09375 L 4.546875 -28.578125 C 5.171875 -29.242188 5.828125 -29.910156 6.515625 -30.578125 C 7.210938 -31.253906 8.0625 -31.859375 9.0625 -32.390625 C 10.070312 -32.921875 11.265625 -33.351562 12.640625 -33.6875 C 14.023438 -34.03125 15.703125 -34.203125 17.671875 -34.203125 Z M 25.359375 -13.25 C 25.140625 -13.78125 24.816406 -14.398438 24.390625 -15.109375 C 23.960938 -15.828125 23.414062 -16.519531 22.75 -17.1875 C 22.082031 -17.863281 21.28125 -18.4375 20.34375 -18.90625 C 19.40625 -19.375 18.289062 -19.609375 17 -19.609375 C 15.707031 -19.609375 14.523438 -19.347656 13.453125 -18.828125 C 12.378906 -18.316406 11.472656 -17.648438 10.734375 -16.828125 C 10.003906 -16.003906 9.4375 -15.035156 9.03125 -13.921875 C 8.632812 -12.804688 8.4375 -11.644531 8.4375 -10.4375 C 8.4375 -9.007812 8.691406 -7.769531 9.203125 -6.71875 C 9.710938 -5.675781 10.367188 -4.785156 11.171875 -4.046875 C 11.972656 -3.304688 12.863281 -2.757812 13.84375 -2.40625 C 14.832031 -2.050781 15.769531 -1.875 16.65625 -1.875 C 17.507812 -1.875 18.367188 -2.03125 19.234375 -2.34375 C 20.109375 -2.65625 20.9375 -3.085938 21.71875 -3.640625 C 22.5 -4.203125 23.203125 -4.863281 23.828125 -5.625 C 24.453125 -6.382812 24.960938 -7.207031 25.359375 -8.09375 Z M 25.359375 -13.25 "/></g></g></g><g fill="#045f70" fill-opacity="1"><g transform="translate(159.362062, 233.653045)"><g><path d="M 12.375 -46.84375 L 6.6875 -46.84375 L 6.6875 0 L 12.375 0 Z M 12.375 -46.84375 "/></g></g></g><g fill="#045f70" fill-opacity="1"><g transform="translate(178.433201, 233.653045)"><g><path d="M 2.46875 -11.84375 C 2.5625 -9.925781 3.066406 -8.1875 3.984375 -6.625 C 4.898438 -5.0625 6.148438 -3.734375 7.734375 -2.640625 C 9.316406 -1.546875 11.175781 -0.695312 13.3125 -0.09375 C 15.457031 0.5 17.800781 0.796875 20.34375 0.796875 C 22.925781 0.796875 25.253906 0.484375 27.328125 -0.140625 C 29.410156 -0.765625 31.1875 -1.65625 32.65625 -2.8125 C 34.125 -3.96875 35.257812 -5.367188 36.0625 -7.015625 C 36.875 -8.671875 37.28125 -10.503906 37.28125 -12.515625 C 37.28125 -15.273438 36.585938 -17.535156 35.203125 -19.296875 C 33.816406 -21.066406 32.085938 -22.539062 30.015625 -23.71875 C 27.941406 -24.90625 25.6875 -25.898438 23.25 -26.703125 C 20.820312 -27.503906 18.570312 -28.347656 16.5 -29.234375 C 14.425781 -30.128906 12.695312 -31.15625 11.3125 -32.3125 C 9.925781 -33.476562 9.234375 -35.019531 9.234375 -36.9375 C 9.234375 -38.007812 9.46875 -39.015625 9.9375 -39.953125 C 10.40625 -40.890625 11.097656 -41.703125 12.015625 -42.390625 C 12.929688 -43.085938 14.054688 -43.644531 15.390625 -44.0625 C 16.734375 -44.488281 18.273438 -44.703125 20.015625 -44.703125 C 22.910156 -44.703125 25.375 -44.085938 27.40625 -42.859375 C 29.4375 -41.628906 30.628906 -39.703125 30.984375 -37.078125 L 35.53125 -37.078125 C 35.269531 -38.722656 34.671875 -40.203125 33.734375 -41.515625 C 32.796875 -42.835938 31.613281 -43.957031 30.1875 -44.875 C 28.757812 -45.789062 27.140625 -46.476562 25.328125 -46.9375 C 23.523438 -47.40625 21.640625 -47.640625 19.671875 -47.640625 C 17.617188 -47.640625 15.664062 -47.375 13.8125 -46.84375 C 11.96875 -46.3125 10.34375 -45.53125 8.9375 -44.5 C 7.53125 -43.476562 6.410156 -42.1875 5.578125 -40.625 C 4.753906 -39.0625 4.34375 -37.273438 4.34375 -35.265625 C 4.34375 -32.628906 5.007812 -30.507812 6.34375 -28.90625 C 7.6875 -27.300781 9.375 -25.960938 11.40625 -24.890625 C 13.4375 -23.816406 15.632812 -22.898438 18 -22.140625 C 20.363281 -21.390625 22.5625 -20.535156 24.59375 -19.578125 C 26.625 -18.617188 28.304688 -17.445312 29.640625 -16.0625 C 30.984375 -14.675781 31.65625 -12.820312 31.65625 -10.5 C 31.65625 -7.601562 30.59375 -5.484375 28.46875 -4.140625 C 26.351562 -2.804688 23.535156 -2.140625 20.015625 -2.140625 C 17.203125 -2.140625 14.945312 -2.503906 13.25 -3.234375 C 11.550781 -3.972656 10.253906 -4.851562 9.359375 -5.875 C 8.472656 -6.90625 7.875 -7.96875 7.5625 -9.0625 C 7.25 -10.15625 7.070312 -11.082031 7.03125 -11.84375 Z M 2.46875 -11.84375 "/></g></g></g><g fill="#045f70" fill-opacity="1"><g transform="translate(220.255883, 233.653045)"><g><path d="M 2 -30.78125 L 2 -33.46875 L 7.828125 -33.46875 L 7.828125 -43.765625 L 13.515625 -43.765625 L 13.515625 -33.46875 L 21.609375 -33.46875 L 21.609375 -30.78125 L 13.515625 -30.78125 L 13.515625 -8.5625 C 13.515625 -8.03125 13.535156 -7.414062 13.578125 -6.71875 C 13.628906 -6.03125 13.765625 -5.382812 13.984375 -4.78125 C 14.210938 -4.175781 14.5625 -3.671875 15.03125 -3.265625 C 15.5 -2.867188 16.15625 -2.671875 17 -2.671875 C 18.070312 -2.671875 18.960938 -3.070312 19.671875 -3.875 C 20.390625 -4.6875 20.972656 -5.554688 21.421875 -6.484375 L 24.5625 -3.28125 C 22.375 -1.09375 19.894531 0 17.125 0 C 15.96875 0 14.832031 -0.195312 13.71875 -0.59375 C 12.601562 -1 11.609375 -1.613281 10.734375 -2.4375 C 9.867188 -3.269531 9.164062 -4.332031 8.625 -5.625 C 8.09375 -6.914062 7.828125 -8.429688 7.828125 -10.171875 L 7.828125 -30.78125 Z M 2 -30.78125 "/></g></g></g><g fill="#045f70" fill-opacity="1"><g transform="translate(245.349487, 233.653045)"><g><path d="M 5.359375 -33.46875 L 5.359375 0 L 11.046875 0 L 11.046875 -20.203125 C 11.046875 -22.035156 11.253906 -23.585938 11.671875 -24.859375 C 12.097656 -26.128906 12.644531 -27.164062 13.3125 -27.96875 C 13.988281 -28.769531 14.726562 -29.347656 15.53125 -29.703125 C 16.332031 -30.066406 17.113281 -30.25 17.875 -30.25 C 18.894531 -30.25 19.835938 -29.910156 20.703125 -29.234375 C 21.578125 -28.566406 22.21875 -27.945312 22.625 -27.375 L 24.890625 -31.515625 C 24.492188 -32.054688 24.015625 -32.503906 23.453125 -32.859375 C 22.898438 -33.210938 22.34375 -33.488281 21.78125 -33.6875 C 21.226562 -33.894531 20.71875 -34.03125 20.25 -34.09375 C 19.78125 -34.164062 19.429688 -34.203125 19.203125 -34.203125 C 17.328125 -34.203125 15.765625 -33.6875 14.515625 -32.65625 C 13.265625 -31.632812 12.238281 -30.117188 11.4375 -28.109375 L 11.046875 -28.109375 L 11.046875 -33.46875 Z M 5.359375 -33.46875 "/></g></g></g><g fill="#045f70" fill-opacity="1"><g transform="translate(270.911508, 233.653045)"><g><path d="M 38.015625 -16.65625 C 38.015625 -14.34375 37.613281 -12.125 36.8125 -10 C 36.007812 -7.882812 34.859375 -6.019531 33.359375 -4.40625 C 31.867188 -2.800781 30.0625 -1.53125 27.9375 -0.59375 C 25.820312 0.332031 23.445312 0.796875 20.8125 0.796875 C 18.132812 0.796875 15.710938 0.316406 13.546875 -0.640625 C 11.390625 -1.597656 9.5625 -2.878906 8.0625 -4.484375 C 6.570312 -6.085938 5.410156 -7.945312 4.578125 -10.0625 C 3.753906 -12.1875 3.34375 -14.382812 3.34375 -16.65625 C 3.34375 -18.976562 3.753906 -21.195312 4.578125 -23.3125 C 5.410156 -25.4375 6.570312 -27.300781 8.0625 -28.90625 C 9.5625 -30.507812 11.390625 -31.789062 13.546875 -32.75 C 15.710938 -33.71875 18.132812 -34.203125 20.8125 -34.203125 C 23.445312 -34.203125 25.820312 -33.71875 27.9375 -32.75 C 30.0625 -31.789062 31.867188 -30.507812 33.359375 -28.90625 C 34.859375 -27.300781 36.007812 -25.4375 36.8125 -23.3125 C 37.613281 -21.195312 38.015625 -18.976562 38.015625 -16.65625 Z M 31.65625 -16.65625 C 31.65625 -19.78125 31.316406 -22.3125 30.640625 -24.25 C 29.972656 -26.195312 29.101562 -27.703125 28.03125 -28.765625 C 26.96875 -29.835938 25.785156 -30.5625 24.484375 -30.9375 C 23.191406 -31.320312 21.945312 -31.515625 20.75 -31.515625 C 19.539062 -31.515625 18.289062 -31.320312 17 -30.9375 C 15.707031 -30.5625 14.515625 -29.835938 13.421875 -28.765625 C 12.328125 -27.703125 11.429688 -26.195312 10.734375 -24.25 C 10.046875 -22.3125 9.703125 -19.78125 9.703125 -16.65625 C 9.703125 -13.582031 10.046875 -11.070312 10.734375 -9.125 C 11.429688 -7.1875 12.328125 -5.679688 13.421875 -4.609375 C 14.515625 -3.546875 15.707031 -2.820312 17 -2.4375 C 18.289062 -2.0625 19.539062 -1.875 20.75 -1.875 C 21.945312 -1.875 23.191406 -2.0625 24.484375 -2.4375 C 25.785156 -2.820312 26.96875 -3.546875 28.03125 -4.609375 C 29.101562 -5.679688 29.972656 -7.1875 30.640625 -9.125 C 31.316406 -11.070312 31.65625 -13.582031 31.65625 -16.65625 Z M 12.453125 -44.03125 C 12.453125 -43.050781 12.804688 -42.203125 13.515625 -41.484375 C 14.234375 -40.773438 15.082031 -40.421875 16.0625 -40.421875 C 17.039062 -40.421875 17.882812 -40.773438 18.59375 -41.484375 C 19.3125 -42.203125 19.671875 -43.050781 19.671875 -44.03125 C 19.671875 -45.007812 19.3125 -45.851562 18.59375 -46.5625 C 17.882812 -47.28125 17.039062 -47.640625 16.0625 -47.640625 C 15.082031 -47.640625 14.234375 -47.28125 13.515625 -46.5625 C 12.804688 -45.851562 12.453125 -45.007812 12.453125 -44.03125 Z M 21.6875 -44.03125 C 21.6875 -43.050781 22.039062 -42.203125 22.75 -41.484375 C 23.46875 -40.773438 24.316406 -40.421875 25.296875 -40.421875 C 26.273438 -40.421875 27.117188 -40.773438 27.828125 -41.484375 C 28.546875 -42.203125 28.90625 -43.050781 28.90625 -44.03125 C 28.90625 -45.007812 28.546875 -45.851562 27.828125 -46.5625 C 27.117188 -47.28125 26.273438 -47.640625 25.296875 -47.640625 C 24.316406 -47.640625 23.46875 -47.28125 22.75 -46.5625 C 22.039062 -45.851562 21.6875 -45.007812 21.6875 -44.03125 Z M 21.6875 -44.03125 "/></g></g></g><g fill="#045f70" fill-opacity="1"><g transform="translate(312.265772, 233.653045)"><g><path d="M 11.046875 0 L 11.046875 -19.078125 C 11.046875 -19.878906 11.109375 -20.9375 11.234375 -22.25 C 11.367188 -23.5625 11.710938 -24.851562 12.265625 -26.125 C 12.828125 -27.40625 13.6875 -28.5 14.84375 -29.40625 C 16.007812 -30.320312 17.640625 -30.78125 19.734375 -30.78125 C 21.253906 -30.78125 22.425781 -30.445312 23.25 -29.78125 C 24.082031 -29.113281 24.695312 -28.285156 25.09375 -27.296875 C 25.5 -26.316406 25.734375 -25.289062 25.796875 -24.21875 C 25.867188 -23.15625 25.90625 -22.222656 25.90625 -21.421875 L 25.90625 0 L 31.59375 0 L 31.59375 -19.078125 C 31.59375 -20.054688 31.679688 -21.222656 31.859375 -22.578125 C 32.035156 -23.941406 32.410156 -25.222656 32.984375 -26.421875 C 33.566406 -27.628906 34.40625 -28.65625 35.5 -29.5 C 36.59375 -30.351562 38.078125 -30.78125 39.953125 -30.78125 C 41.335938 -30.78125 42.453125 -30.578125 43.296875 -30.171875 C 44.140625 -29.773438 44.796875 -29.175781 45.265625 -28.375 C 45.734375 -27.570312 46.046875 -26.585938 46.203125 -25.421875 C 46.359375 -24.265625 46.4375 -22.929688 46.4375 -21.421875 L 46.4375 0 L 52.125 0 L 52.125 -23.359375 C 52.125 -24.378906 52.015625 -25.523438 51.796875 -26.796875 C 51.578125 -28.066406 51.097656 -29.25 50.359375 -30.34375 C 49.617188 -31.4375 48.546875 -32.351562 47.140625 -33.09375 C 45.734375 -33.832031 43.875 -34.203125 41.5625 -34.203125 C 40.894531 -34.203125 40.113281 -34.132812 39.21875 -34 C 38.320312 -33.863281 37.382812 -33.570312 36.40625 -33.125 C 35.425781 -32.675781 34.476562 -32.03125 33.5625 -31.1875 C 32.644531 -30.34375 31.851562 -29.226562 31.1875 -27.84375 L 30.71875 -27.84375 C 30.445312 -28.550781 30.066406 -29.273438 29.578125 -30.015625 C 29.085938 -30.753906 28.460938 -31.4375 27.703125 -32.0625 C 26.941406 -32.6875 26.035156 -33.195312 24.984375 -33.59375 C 23.941406 -34 22.6875 -34.203125 21.21875 -34.203125 C 20.539062 -34.203125 19.734375 -34.125 18.796875 -33.96875 C 17.867188 -33.8125 16.9375 -33.507812 16 -33.0625 C 15.0625 -32.613281 14.175781 -31.988281 13.34375 -31.1875 C 12.519531 -30.382812 11.84375 -29.335938 11.3125 -28.046875 L 11.046875 -28.046875 L 11.046875 -33.46875 L 5.359375 -33.46875 L 5.359375 0 Z M 11.046875 0 "/></g></g></g><g fill="#045f70" fill-opacity="1"><g transform="translate(164.402865, 256.831272)"><g><path d="M 7.625 -9.765625 L 7.625 -8.796875 L 4.5625 -8.796875 L 4.5625 0 L 3.421875 0 L 3.421875 -8.796875 L 0.359375 -8.796875 L 0.359375 -9.765625 Z M 7.625 -9.765625 "/></g></g><g transform="translate(172.382784, 256.831272)"><g><path d="M 3.046875 0.140625 C 2.316406 0.140625 1.75 -0.046875 1.34375 -0.421875 C 0.9375 -0.804688 0.734375 -1.347656 0.734375 -2.046875 C 0.734375 -2.484375 0.820312 -2.851562 1 -3.15625 C 1.175781 -3.457031 1.453125 -3.703125 1.828125 -3.890625 C 2.210938 -4.078125 2.710938 -4.222656 3.328125 -4.328125 C 3.859375 -4.421875 4.257812 -4.519531 4.53125 -4.625 C 4.8125 -4.738281 5 -4.863281 5.09375 -5 C 5.195312 -5.144531 5.25 -5.320312 5.25 -5.53125 C 5.25 -5.863281 5.132812 -6.117188 4.90625 -6.296875 C 4.675781 -6.472656 4.304688 -6.5625 3.796875 -6.5625 C 3.316406 -6.5625 2.90625 -6.46875 2.5625 -6.28125 C 2.226562 -6.101562 1.914062 -5.828125 1.625 -5.453125 L 1.5 -5.453125 L 0.96875 -6.21875 C 1.28125 -6.613281 1.675781 -6.925781 2.15625 -7.15625 C 2.632812 -7.394531 3.179688 -7.515625 3.796875 -7.515625 C 4.660156 -7.515625 5.296875 -7.320312 5.703125 -6.9375 C 6.117188 -6.5625 6.328125 -6.035156 6.328125 -5.359375 L 6.328125 -1.453125 C 6.328125 -1.035156 6.503906 -0.828125 6.859375 -0.828125 C 6.972656 -0.828125 7.082031 -0.847656 7.1875 -0.890625 L 7.28125 -0.875 L 7.40625 -0.109375 C 7.332031 -0.0546875 7.226562 -0.0195312 7.09375 0 C 6.957031 0.03125 6.820312 0.046875 6.6875 0.046875 C 6.28125 0.046875 5.972656 -0.0390625 5.765625 -0.21875 C 5.554688 -0.394531 5.425781 -0.65625 5.375 -1 L 5.234375 -1.015625 C 5.023438 -0.628906 4.738281 -0.335938 4.375 -0.140625 C 4.019531 0.046875 3.578125 0.140625 3.046875 0.140625 Z M 3.28125 -0.734375 C 3.6875 -0.734375 4.039062 -0.828125 4.34375 -1.015625 C 4.644531 -1.203125 4.875 -1.46875 5.03125 -1.8125 C 5.195312 -2.15625 5.28125 -2.550781 5.28125 -3 L 5.28125 -3.9375 L 5.15625 -3.96875 C 4.988281 -3.851562 4.785156 -3.753906 4.546875 -3.671875 C 4.316406 -3.597656 3.988281 -3.53125 3.5625 -3.46875 C 3.132812 -3.40625 2.796875 -3.3125 2.546875 -3.1875 C 2.296875 -3.070312 2.113281 -2.921875 2 -2.734375 C 1.894531 -2.546875 1.84375 -2.316406 1.84375 -2.046875 C 1.84375 -1.617188 1.96875 -1.289062 2.21875 -1.0625 C 2.476562 -0.84375 2.832031 -0.734375 3.28125 -0.734375 Z M 3.28125 -0.734375 "/></g></g><g transform="translate(180.008485, 256.831272)"><g><path d="M 2.9375 0.140625 C 2.414062 0.140625 2.003906 -0.00390625 1.703125 -0.296875 C 1.398438 -0.597656 1.25 -1.039062 1.25 -1.625 L 1.25 -10.328125 L 2.34375 -10.328125 L 2.34375 -1.703125 C 2.34375 -1.398438 2.398438 -1.175781 2.515625 -1.03125 C 2.640625 -0.894531 2.828125 -0.828125 3.078125 -0.828125 C 3.222656 -0.828125 3.375 -0.851562 3.53125 -0.90625 L 3.625 -0.875 L 3.75 -0.03125 C 3.675781 0.0195312 3.5625 0.0625 3.40625 0.09375 C 3.257812 0.125 3.101562 0.140625 2.9375 0.140625 Z M 2.9375 0.140625 "/></g></g><g transform="translate(184.018495, 256.831272)"><g><path d="M 7.03125 -3.4375 L 1.953125 -3.4375 C 1.984375 -2.539062 2.195312 -1.878906 2.59375 -1.453125 C 3 -1.035156 3.550781 -0.828125 4.25 -0.828125 C 4.769531 -0.828125 5.191406 -0.921875 5.515625 -1.109375 C 5.835938 -1.296875 6.085938 -1.59375 6.265625 -2 L 6.40625 -2 L 7.125 -1.578125 C 6.90625 -1.046875 6.5625 -0.625 6.09375 -0.3125 C 5.625 -0.0078125 5.007812 0.140625 4.25 0.140625 C 3.53125 0.140625 2.914062 0 2.40625 -0.28125 C 1.894531 -0.5625 1.5 -0.984375 1.21875 -1.546875 C 0.945312 -2.117188 0.8125 -2.832031 0.8125 -3.6875 C 0.8125 -4.519531 0.957031 -5.222656 1.25 -5.796875 C 1.539062 -6.367188 1.9375 -6.796875 2.4375 -7.078125 C 2.945312 -7.367188 3.523438 -7.515625 4.171875 -7.515625 C 5.117188 -7.515625 5.859375 -7.25 6.390625 -6.71875 C 6.921875 -6.1875 7.1875 -5.394531 7.1875 -4.34375 C 7.1875 -3.9375 7.179688 -3.660156 7.171875 -3.515625 Z M 6.109375 -4.34375 C 6.097656 -5.125 5.925781 -5.691406 5.59375 -6.046875 C 5.257812 -6.410156 4.785156 -6.59375 4.171875 -6.59375 C 3.523438 -6.59375 3.019531 -6.410156 2.65625 -6.046875 C 2.289062 -5.691406 2.066406 -5.125 1.984375 -4.34375 Z M 6.109375 -4.34375 "/></g></g><g transform="translate(191.878113, 256.831272)"><g><path d="M 1.28125 0 L 1.28125 -7.375 L 2.3125 -7.375 L 2.3125 -6.21875 L 2.453125 -6.1875 C 2.703125 -6.613281 3.015625 -6.941406 3.390625 -7.171875 C 3.773438 -7.398438 4.242188 -7.515625 4.796875 -7.515625 C 5.679688 -7.515625 6.320312 -7.285156 6.71875 -6.828125 C 7.113281 -6.378906 7.3125 -5.6875 7.3125 -4.75 L 7.3125 0 L 6.234375 0 L 6.234375 -4.71875 C 6.234375 -5.164062 6.175781 -5.523438 6.0625 -5.796875 C 5.945312 -6.066406 5.769531 -6.257812 5.53125 -6.375 C 5.289062 -6.5 4.976562 -6.5625 4.59375 -6.5625 C 3.925781 -6.5625 3.390625 -6.34375 2.984375 -5.90625 C 2.578125 -5.46875 2.375 -4.757812 2.375 -3.78125 L 2.375 0 Z M 1.28125 0 "/></g></g><g transform="translate(200.365967, 256.831272)"><g><path d="M 4.984375 -1.171875 L 5.328125 -0.390625 C 5.160156 -0.210938 4.929688 -0.0820312 4.640625 0 C 4.359375 0.09375 4.054688 0.140625 3.734375 0.140625 C 2.328125 0.140625 1.625 -0.570312 1.625 -2 L 1.625 -6.484375 L 0.328125 -6.484375 L 0.328125 -7.375 L 1.625 -7.375 L 1.625 -8.9375 L 2.703125 -9.109375 L 2.703125 -7.375 L 5.078125 -7.375 L 5.078125 -6.484375 L 2.703125 -6.484375 L 2.703125 -2.109375 C 2.703125 -1.253906 3.070312 -0.828125 3.8125 -0.828125 C 4.207031 -0.828125 4.550781 -0.941406 4.84375 -1.171875 Z M 4.984375 -1.171875 "/></g></g><g transform="translate(205.97998, 256.831272)"><g/></g><g transform="translate(209.335021, 256.831272)"><g><path d="M 4.96875 -9.765625 C 5.644531 -9.765625 6.222656 -9.644531 6.703125 -9.40625 C 7.179688 -9.164062 7.546875 -8.820312 7.796875 -8.375 C 8.054688 -7.925781 8.1875 -7.398438 8.1875 -6.796875 C 8.1875 -6.191406 8.054688 -5.664062 7.796875 -5.21875 C 7.546875 -4.769531 7.179688 -4.425781 6.703125 -4.1875 C 6.222656 -3.945312 5.644531 -3.828125 4.96875 -3.828125 L 2.625 -3.828125 L 2.625 0 L 1.484375 0 L 1.484375 -9.765625 Z M 4.9375 -4.8125 C 6.300781 -4.8125 6.984375 -5.472656 6.984375 -6.796875 C 6.984375 -8.128906 6.300781 -8.796875 4.9375 -8.796875 L 2.625 -8.796875 L 2.625 -4.8125 Z M 4.9375 -4.8125 "/></g></g><g transform="translate(218.243926, 256.831272)"><g><path d="M 4.234375 0.140625 C 3.535156 0.140625 2.925781 -0.00390625 2.40625 -0.296875 C 1.894531 -0.585938 1.5 -1.019531 1.21875 -1.59375 C 0.945312 -2.164062 0.8125 -2.863281 0.8125 -3.6875 C 0.8125 -4.5 0.945312 -5.191406 1.21875 -5.765625 C 1.5 -6.335938 1.894531 -6.769531 2.40625 -7.0625 C 2.925781 -7.363281 3.535156 -7.515625 4.234375 -7.515625 C 4.921875 -7.515625 5.519531 -7.363281 6.03125 -7.0625 C 6.550781 -6.769531 6.953125 -6.335938 7.234375 -5.765625 C 7.515625 -5.191406 7.65625 -4.5 7.65625 -3.6875 C 7.65625 -2.863281 7.515625 -2.164062 7.234375 -1.59375 C 6.953125 -1.019531 6.550781 -0.585938 6.03125 -0.296875 C 5.519531 -0.00390625 4.921875 0.140625 4.234375 0.140625 Z M 4.234375 -0.828125 C 4.960938 -0.828125 5.519531 -1.054688 5.90625 -1.515625 C 6.300781 -1.984375 6.5 -2.707031 6.5 -3.6875 C 6.5 -4.65625 6.300781 -5.367188 5.90625 -5.828125 C 5.519531 -6.296875 4.960938 -6.53125 4.234375 -6.53125 C 3.492188 -6.53125 2.925781 -6.296875 2.53125 -5.828125 C 2.144531 -5.367188 1.953125 -4.65625 1.953125 -3.6875 C 1.953125 -2.707031 2.144531 -1.984375 2.53125 -1.515625 C 2.925781 -1.054688 3.492188 -0.828125 4.234375 -0.828125 Z M 4.234375 -0.828125 "/></g></g><g transform="translate(226.705046, 256.831272)"><g><path d="M 4.234375 0.140625 C 3.535156 0.140625 2.925781 -0.00390625 2.40625 -0.296875 C 1.894531 -0.585938 1.5 -1.019531 1.21875 -1.59375 C 0.945312 -2.164062 0.8125 -2.863281 0.8125 -3.6875 C 0.8125 -4.5 0.945312 -5.191406 1.21875 -5.765625 C 1.5 -6.335938 1.894531 -6.769531 2.40625 -7.0625 C 2.925781 -7.363281 3.535156 -7.515625 4.234375 -7.515625 C 4.921875 -7.515625 5.519531 -7.363281 6.03125 -7.0625 C 6.550781 -6.769531 6.953125 -6.335938 7.234375 -5.765625 C 7.515625 -5.191406 7.65625 -4.5 7.65625 -3.6875 C 7.65625 -2.863281 7.515625 -2.164062 7.234375 -1.59375 C 6.953125 -1.019531 6.550781 -0.585938 6.03125 -0.296875 C 5.519531 -0.00390625 4.921875 0.140625 4.234375 0.140625 Z M 4.234375 -0.828125 C 4.960938 -0.828125 5.519531 -1.054688 5.90625 -1.515625 C 6.300781 -1.984375 6.5 -2.707031 6.5 -3.6875 C 6.5 -4.65625 6.300781 -5.367188 5.90625 -5.828125 C 5.519531 -6.296875 4.960938 -6.53125 4.234375 -6.53125 C 3.492188 -6.53125 2.925781 -6.296875 2.53125 -5.828125 C 2.144531 -5.367188 1.953125 -4.65625 1.953125 -3.6875 C 1.953125 -2.707031 2.144531 -1.984375 2.53125 -1.515625 C 2.925781 -1.054688 3.492188 -0.828125 4.234375 -0.828125 Z M 4.234375 -0.828125 "/></g></g><g transform="translate(235.166166, 256.831272)"><g><path d="M 2.9375 0.140625 C 2.414062 0.140625 2.003906 -0.00390625 1.703125 -0.296875 C 1.398438 -0.597656 1.25 -1.039062 1.25 -1.625 L 1.25 -10.328125 L 2.34375 -10.328125 L 2.34375 -1.703125 C 2.34375 -1.398438 2.398438 -1.175781 2.515625 -1.03125 C 2.640625 -0.894531 2.828125 -0.828125 3.078125 -0.828125 C 3.222656 -0.828125 3.375 -0.851562 3.53125 -0.90625 L 3.625 -0.875 L 3.75 -0.03125 C 3.675781 0.0195312 3.5625 0.0625 3.40625 0.09375 C 3.257812 0.125 3.101562 0.140625 2.9375 0.140625 Z M 2.9375 0.140625 "/></g></g><g transform="translate(239.176175, 256.831272)"><g/></g><g transform="translate(242.531217, 256.831272)"><g><path d="M 2.546875 0 L 1.484375 0 L 1.484375 -9.765625 L 3.1875 -9.765625 L 6.140625 -1.5 L 6.28125 -1.5 L 9.25 -9.765625 L 10.890625 -9.765625 L 10.890625 0 L 9.796875 0 L 9.796875 -7.96875 L 9.625 -8 L 6.75 0 L 5.59375 0 L 2.703125 -8 L 2.546875 -7.96875 Z M 2.546875 0 "/></g></g><g transform="translate(254.902096, 256.831272)"><g><path d="M 3.046875 0.140625 C 2.316406 0.140625 1.75 -0.046875 1.34375 -0.421875 C 0.9375 -0.804688 0.734375 -1.347656 0.734375 -2.046875 C 0.734375 -2.484375 0.820312 -2.851562 1 -3.15625 C 1.175781 -3.457031 1.453125 -3.703125 1.828125 -3.890625 C 2.210938 -4.078125 2.710938 -4.222656 3.328125 -4.328125 C 3.859375 -4.421875 4.257812 -4.519531 4.53125 -4.625 C 4.8125 -4.738281 5 -4.863281 5.09375 -5 C 5.195312 -5.144531 5.25 -5.320312 5.25 -5.53125 C 5.25 -5.863281 5.132812 -6.117188 4.90625 -6.296875 C 4.675781 -6.472656 4.304688 -6.5625 3.796875 -6.5625 C 3.316406 -6.5625 2.90625 -6.46875 2.5625 -6.28125 C 2.226562 -6.101562 1.914062 -5.828125 1.625 -5.453125 L 1.5 -5.453125 L 0.96875 -6.21875 C 1.28125 -6.613281 1.675781 -6.925781 2.15625 -7.15625 C 2.632812 -7.394531 3.179688 -7.515625 3.796875 -7.515625 C 4.660156 -7.515625 5.296875 -7.320312 5.703125 -6.9375 C 6.117188 -6.5625 6.328125 -6.035156 6.328125 -5.359375 L 6.328125 -1.453125 C 6.328125 -1.035156 6.503906 -0.828125 6.859375 -0.828125 C 6.972656 -0.828125 7.082031 -0.847656 7.1875 -0.890625 L 7.28125 -0.875 L 7.40625 -0.109375 C 7.332031 -0.0546875 7.226562 -0.0195312 7.09375 0 C 6.957031 0.03125 6.820312 0.046875 6.6875 0.046875 C 6.28125 0.046875 5.972656 -0.0390625 5.765625 -0.21875 C 5.554688 -0.394531 5.425781 -0.65625 5.375 -1 L 5.234375 -1.015625 C 5.023438 -0.628906 4.738281 -0.335938 4.375 -0.140625 C 4.019531 0.046875 3.578125 0.140625 3.046875 0.140625 Z M 3.28125 -0.734375 C 3.6875 -0.734375 4.039062 -0.828125 4.34375 -1.015625 C 4.644531 -1.203125 4.875 -1.46875 5.03125 -1.8125 C 5.195312 -2.15625 5.28125 -2.550781 5.28125 -3 L 5.28125 -3.9375 L 5.15625 -3.96875 C 4.988281 -3.851562 4.785156 -3.753906 4.546875 -3.671875 C 4.316406 -3.597656 3.988281 -3.53125 3.5625 -3.46875 C 3.132812 -3.40625 2.796875 -3.3125 2.546875 -3.1875 C 2.296875 -3.070312 2.113281 -2.921875 2 -2.734375 C 1.894531 -2.546875 1.84375 -2.316406 1.84375 -2.046875 C 1.84375 -1.617188 1.96875 -1.289062 2.21875 -1.0625 C 2.476562 -0.84375 2.832031 -0.734375 3.28125 -0.734375 Z M 3.28125 -0.734375 "/></g></g><g transform="translate(262.527797, 256.831272)"><g><path d="M 1.28125 0 L 1.28125 -7.375 L 2.3125 -7.375 L 2.3125 -6.21875 L 2.453125 -6.1875 C 2.703125 -6.613281 3.015625 -6.941406 3.390625 -7.171875 C 3.773438 -7.398438 4.242188 -7.515625 4.796875 -7.515625 C 5.679688 -7.515625 6.320312 -7.285156 6.71875 -6.828125 C 7.113281 -6.378906 7.3125 -5.6875 7.3125 -4.75 L 7.3125 0 L 6.234375 0 L 6.234375 -4.71875 C 6.234375 -5.164062 6.175781 -5.523438 6.0625 -5.796875 C 5.945312 -6.066406 5.769531 -6.257812 5.53125 -6.375 C 5.289062 -6.5 4.976562 -6.5625 4.59375 -6.5625 C 3.925781 -6.5625 3.390625 -6.34375 2.984375 -5.90625 C 2.578125 -5.46875 2.375 -4.757812 2.375 -3.78125 L 2.375 0 Z M 1.28125 0 "/></g></g><g transform="translate(271.015651, 256.831272)"><g><path d="M 3.046875 0.140625 C 2.316406 0.140625 1.75 -0.046875 1.34375 -0.421875 C 0.9375 -0.804688 0.734375 -1.347656 0.734375 -2.046875 C 0.734375 -2.484375 0.820312 -2.851562 1 -3.15625 C 1.175781 -3.457031 1.453125 -3.703125 1.828125 -3.890625 C 2.210938 -4.078125 2.710938 -4.222656 3.328125 -4.328125 C 3.859375 -4.421875 4.257812 -4.519531 4.53125 -4.625 C 4.8125 -4.738281 5 -4.863281 5.09375 -5 C 5.195312 -5.144531 5.25 -5.320312 5.25 -5.53125 C 5.25 -5.863281 5.132812 -6.117188 4.90625 -6.296875 C 4.675781 -6.472656 4.304688 -6.5625 3.796875 -6.5625 C 3.316406 -6.5625 2.90625 -6.46875 2.5625 -6.28125 C 2.226562 -6.101562 1.914062 -5.828125 1.625 -5.453125 L 1.5 -5.453125 L 0.96875 -6.21875 C 1.28125 -6.613281 1.675781 -6.925781 2.15625 -7.15625 C 2.632812 -7.394531 3.179688 -7.515625 3.796875 -7.515625 C 4.660156 -7.515625 5.296875 -7.320312 5.703125 -6.9375 C 6.117188 -6.5625 6.328125 -6.035156 6.328125 -5.359375 L 6.328125 -1.453125 C 6.328125 -1.035156 6.503906 -0.828125 6.859375 -0.828125 C 6.972656 -0.828125 7.082031 -0.847656 7.1875 -0.890625 L 7.28125 -0.875 L 7.40625 -0.109375 C 7.332031 -0.0546875 7.226562 -0.0195312 7.09375 0 C 6.957031 0.03125 6.820312 0.046875 6.6875 0.046875 C 6.28125 0.046875 5.972656 -0.0390625 5.765625 -0.21875 C 5.554688 -0.394531 5.425781 -0.65625 5.375 -1 L 5.234375 -1.015625 C 5.023438 -0.628906 4.738281 -0.335938 4.375 -0.140625 C 4.019531 0.046875 3.578125 0.140625 3.046875 0.140625 Z M 3.28125 -0.734375 C 3.6875 -0.734375 4.039062 -0.828125 4.34375 -1.015625 C 4.644531 -1.203125 4.875 -1.46875 5.03125 -1.8125 C 5.195312 -2.15625 5.28125 -2.550781 5.28125 -3 L 5.28125 -3.9375 L 5.15625 -3.96875 C 4.988281 -3.851562 4.785156 -3.753906 4.546875 -3.671875 C 4.316406 -3.597656 3.988281 -3.53125 3.5625 -3.46875 C 3.132812 -3.40625 2.796875 -3.3125 2.546875 -3.1875 C 2.296875 -3.070312 2.113281 -2.921875 2 -2.734375 C 1.894531 -2.546875 1.84375 -2.316406 1.84375 -2.046875 C 1.84375 -1.617188 1.96875 -1.289062 2.21875 -1.0625 C 2.476562 -0.84375 2.832031 -0.734375 3.28125 -0.734375 Z M 3.28125 -0.734375 "/></g></g><g transform="translate(278.641352, 256.831272)"><g><path d="M 3.796875 3.125 C 2.628906 3.125 1.78125 2.929688 1.25 2.546875 C 0.71875 2.160156 0.453125 1.644531 0.453125 1 C 0.453125 0.582031 0.578125 0.25 0.828125 0 C 1.078125 -0.238281 1.4375 -0.410156 1.90625 -0.515625 L 1.90625 -0.65625 C 1.6875 -0.78125 1.519531 -0.929688 1.40625 -1.109375 C 1.289062 -1.285156 1.234375 -1.492188 1.234375 -1.734375 C 1.234375 -2.015625 1.320312 -2.242188 1.5 -2.421875 C 1.675781 -2.597656 1.945312 -2.734375 2.3125 -2.828125 L 2.3125 -2.96875 C 1.507812 -3.394531 1.109375 -4.085938 1.109375 -5.046875 C 1.109375 -5.523438 1.210938 -5.953125 1.421875 -6.328125 C 1.640625 -6.703125 1.953125 -6.992188 2.359375 -7.203125 C 2.765625 -7.410156 3.238281 -7.515625 3.78125 -7.515625 C 4.40625 -7.515625 4.921875 -7.378906 5.328125 -7.109375 C 5.484375 -7.273438 5.597656 -7.457031 5.671875 -7.65625 C 5.753906 -7.851562 5.804688 -8.078125 5.828125 -8.328125 L 5.96875 -8.421875 L 6.875 -8.203125 C 6.820312 -7.828125 6.707031 -7.507812 6.53125 -7.25 C 6.351562 -7 6.097656 -6.785156 5.765625 -6.609375 L 5.765625 -6.46875 C 6.003906 -6.289062 6.179688 -6.070312 6.296875 -5.8125 C 6.410156 -5.5625 6.46875 -5.269531 6.46875 -4.9375 C 6.46875 -4.476562 6.351562 -4.0625 6.125 -3.6875 C 5.90625 -3.320312 5.59375 -3.03125 5.1875 -2.8125 C 4.78125 -2.601562 4.3125 -2.5 3.78125 -2.5 C 3.71875 -2.5 3.609375 -2.503906 3.453125 -2.515625 C 3.273438 -2.523438 3.140625 -2.53125 3.046875 -2.53125 C 2.816406 -2.53125 2.632812 -2.46875 2.5 -2.34375 C 2.363281 -2.226562 2.296875 -2.078125 2.296875 -1.890625 C 2.296875 -1.648438 2.367188 -1.472656 2.515625 -1.359375 C 2.660156 -1.253906 2.90625 -1.195312 3.25 -1.1875 L 5 -1.125 C 5.75 -1.101562 6.304688 -0.929688 6.671875 -0.609375 C 7.035156 -0.285156 7.21875 0.171875 7.21875 0.765625 C 7.21875 1.210938 7.097656 1.613281 6.859375 1.96875 C 6.628906 2.320312 6.253906 2.601562 5.734375 2.8125 C 5.222656 3.019531 4.578125 3.125 3.796875 3.125 Z M 3.78125 -3.4375 C 4.300781 -3.4375 4.703125 -3.570312 4.984375 -3.84375 C 5.273438 -4.113281 5.421875 -4.492188 5.421875 -4.984375 C 5.421875 -5.492188 5.28125 -5.882812 5 -6.15625 C 4.71875 -6.4375 4.3125 -6.578125 3.78125 -6.578125 C 3.257812 -6.578125 2.859375 -6.4375 2.578125 -6.15625 C 2.304688 -5.882812 2.171875 -5.492188 2.171875 -4.984375 C 2.171875 -4.492188 2.304688 -4.113281 2.578125 -3.84375 C 2.859375 -3.570312 3.257812 -3.4375 3.78125 -3.4375 Z M 3.796875 2.1875 C 4.335938 2.1875 4.78125 2.125 5.125 2 C 5.46875 1.882812 5.71875 1.726562 5.875 1.53125 C 6.03125 1.332031 6.109375 1.113281 6.109375 0.875 C 6.109375 0.65625 6.066406 0.476562 5.984375 0.34375 C 5.898438 0.207031 5.765625 0.101562 5.578125 0.03125 C 5.398438 -0.03125 5.148438 -0.0703125 4.828125 -0.09375 L 3.1875 -0.171875 L 2.953125 -0.171875 C 2.023438 -0.148438 1.5625 0.207031 1.5625 0.90625 C 1.5625 1.757812 2.304688 2.1875 3.796875 2.1875 Z M 3.796875 2.1875 "/></g></g><g transform="translate(286.193537, 256.831272)"><g><path d="M 7.03125 -3.4375 L 1.953125 -3.4375 C 1.984375 -2.539062 2.195312 -1.878906 2.59375 -1.453125 C 3 -1.035156 3.550781 -0.828125 4.25 -0.828125 C 4.769531 -0.828125 5.191406 -0.921875 5.515625 -1.109375 C 5.835938 -1.296875 6.085938 -1.59375 6.265625 -2 L 6.40625 -2 L 7.125 -1.578125 C 6.90625 -1.046875 6.5625 -0.625 6.09375 -0.3125 C 5.625 -0.0078125 5.007812 0.140625 4.25 0.140625 C 3.53125 0.140625 2.914062 0 2.40625 -0.28125 C 1.894531 -0.5625 1.5 -0.984375 1.21875 -1.546875 C 0.945312 -2.117188 0.8125 -2.832031 0.8125 -3.6875 C 0.8125 -4.519531 0.957031 -5.222656 1.25 -5.796875 C 1.539062 -6.367188 1.9375 -6.796875 2.4375 -7.078125 C 2.945312 -7.367188 3.523438 -7.515625 4.171875 -7.515625 C 5.117188 -7.515625 5.859375 -7.25 6.390625 -6.71875 C 6.921875 -6.1875 7.1875 -5.394531 7.1875 -4.34375 C 7.1875 -3.9375 7.179688 -3.660156 7.171875 -3.515625 Z M 6.109375 -4.34375 C 6.097656 -5.125 5.925781 -5.691406 5.59375 -6.046875 C 5.257812 -6.410156 4.785156 -6.59375 4.171875 -6.59375 C 3.523438 -6.59375 3.019531 -6.410156 2.65625 -6.046875 C 2.289062 -5.691406 2.066406 -5.125 1.984375 -4.34375 Z M 6.109375 -4.34375 "/></g></g><g transform="translate(294.053155, 256.831272)"><g><path d="M 1.28125 0 L 1.28125 -7.375 L 2.3125 -7.375 L 2.3125 -6.28125 L 2.453125 -6.25 C 2.703125 -6.664062 3.003906 -6.976562 3.359375 -7.1875 C 3.710938 -7.40625 4.140625 -7.515625 4.640625 -7.515625 C 5.210938 -7.515625 5.648438 -7.40625 5.953125 -7.1875 C 6.265625 -6.96875 6.507812 -6.617188 6.6875 -6.140625 L 6.828125 -6.140625 C 7.085938 -6.585938 7.398438 -6.925781 7.765625 -7.15625 C 8.140625 -7.394531 8.597656 -7.515625 9.140625 -7.515625 C 9.898438 -7.515625 10.460938 -7.304688 10.828125 -6.890625 C 11.203125 -6.484375 11.390625 -5.863281 11.390625 -5.03125 L 11.390625 0 L 10.3125 0 L 10.3125 -5 C 10.3125 -5.53125 10.195312 -5.921875 9.96875 -6.171875 C 9.738281 -6.429688 9.375 -6.5625 8.875 -6.5625 C 8.289062 -6.5625 7.8125 -6.347656 7.4375 -5.921875 C 7.070312 -5.492188 6.890625 -4.789062 6.890625 -3.8125 L 6.890625 0 L 5.796875 0 L 5.796875 -5 C 5.796875 -5.53125 5.679688 -5.921875 5.453125 -6.171875 C 5.234375 -6.429688 4.875 -6.5625 4.375 -6.5625 C 3.78125 -6.5625 3.296875 -6.351562 2.921875 -5.9375 C 2.554688 -5.519531 2.375 -4.847656 2.375 -3.921875 L 2.375 0 Z M 1.28125 0 "/></g></g><g transform="translate(306.617852, 256.831272)"><g><path d="M 7.03125 -3.4375 L 1.953125 -3.4375 C 1.984375 -2.539062 2.195312 -1.878906 2.59375 -1.453125 C 3 -1.035156 3.550781 -0.828125 4.25 -0.828125 C 4.769531 -0.828125 5.191406 -0.921875 5.515625 -1.109375 C 5.835938 -1.296875 6.085938 -1.59375 6.265625 -2 L 6.40625 -2 L 7.125 -1.578125 C 6.90625 -1.046875 6.5625 -0.625 6.09375 -0.3125 C 5.625 -0.0078125 5.007812 0.140625 4.25 0.140625 C 3.53125 0.140625 2.914062 0 2.40625 -0.28125 C 1.894531 -0.5625 1.5 -0.984375 1.21875 -1.546875 C 0.945312 -2.117188 0.8125 -2.832031 0.8125 -3.6875 C 0.8125 -4.519531 0.957031 -5.222656 1.25 -5.796875 C 1.539062 -6.367188 1.9375 -6.796875 2.4375 -7.078125 C 2.945312 -7.367188 3.523438 -7.515625 4.171875 -7.515625 C 5.117188 -7.515625 5.859375 -7.25 6.390625 -6.71875 C 6.921875 -6.1875 7.1875 -5.394531 7.1875 -4.34375 C 7.1875 -3.9375 7.179688 -3.660156 7.171875 -3.515625 Z M 6.109375 -4.34375 C 6.097656 -5.125 5.925781 -5.691406 5.59375 -6.046875 C 5.257812 -6.410156 4.785156 -6.59375 4.171875 -6.59375 C 3.523438 -6.59375 3.019531 -6.410156 2.65625 -6.046875 C 2.289062 -5.691406 2.066406 -5.125 1.984375 -4.34375 Z M 6.109375 -4.34375 "/></g></g><g transform="translate(314.47747, 256.831272)"><g><path d="M 1.28125 0 L 1.28125 -7.375 L 2.3125 -7.375 L 2.3125 -6.21875 L 2.453125 -6.1875 C 2.703125 -6.613281 3.015625 -6.941406 3.390625 -7.171875 C 3.773438 -7.398438 4.242188 -7.515625 4.796875 -7.515625 C 5.679688 -7.515625 6.320312 -7.285156 6.71875 -6.828125 C 7.113281 -6.378906 7.3125 -5.6875 7.3125 -4.75 L 7.3125 0 L 6.234375 0 L 6.234375 -4.71875 C 6.234375 -5.164062 6.175781 -5.523438 6.0625 -5.796875 C 5.945312 -6.066406 5.769531 -6.257812 5.53125 -6.375 C 5.289062 -6.5 4.976562 -6.5625 4.59375 -6.5625 C 3.925781 -6.5625 3.390625 -6.34375 2.984375 -5.90625 C 2.578125 -5.46875 2.375 -4.757812 2.375 -3.78125 L 2.375 0 Z M 1.28125 0 "/></g></g><g transform="translate(322.965324, 256.831272)"><g><path d="M 4.984375 -1.171875 L 5.328125 -0.390625 C 5.160156 -0.210938 4.929688 -0.0820312 4.640625 0 C 4.359375 0.09375 4.054688 0.140625 3.734375 0.140625 C 2.328125 0.140625 1.625 -0.570312 1.625 -2 L 1.625 -6.484375 L 0.328125 -6.484375 L 0.328125 -7.375 L 1.625 -7.375 L 1.625 -8.9375 L 2.703125 -9.109375 L 2.703125 -7.375 L 5.078125 -7.375 L 5.078125 -6.484375 L 2.703125 -6.484375 L 2.703125 -2.109375 C 2.703125 -1.253906 3.070312 -0.828125 3.8125 -0.828125 C 4.207031 -0.828125 4.550781 -0.941406 4.84375 -1.171875 Z M 4.984375 -1.171875 "/></g></g></g></svg>