<svg xmlns="http://www.w3.org/2000/svg" xmlns:xlink="http://www.w3.org/1999/xlink" width="500" zoomAndPan="magnify" viewBox="0 0 375 374.999991" height="500" preserveAspectRatio="xMidYMid meet" version="1.0"><defs><clipPath id="d0baa91c0d"><path d="M 7.863281 23 L 367.113281 23 L 367.113281 352.492188 L 7.863281 352.492188 Z M 7.863281 23 " clip-rule="nonzero"/></clipPath><clipPath id="e40a2e6bcf"><path d="M 187.582031 353.21875 C 158.234375 353.21875 133.640625 332.621094 128.109375 304.421875 C 125.480469 303.914062 123.421875 301.671875 123.269531 298.871094 C 123.101562 295.566406 125.648438 292.765625 128.9375 292.597656 L 129.140625 292.597656 C 132.410156 292.597656 135.042969 295.078125 135.210938 298.28125 C 135.328125 300.675781 134.03125 302.785156 132.039062 303.847656 C 137.269531 330.109375 160.207031 349.253906 187.566406 349.253906 C 218.804688 349.253906 244.222656 323.835938 244.222656 292.597656 L 244.222656 233.191406 C 241.898438 232.363281 240.226562 230.171875 240.226562 227.574219 C 240.226562 224.265625 242.910156 221.585938 246.214844 221.585938 C 249.519531 221.585938 252.203125 224.265625 252.203125 227.574219 C 252.203125 230.171875 250.53125 232.363281 248.203125 233.191406 L 248.203125 292.578125 C 248.203125 326.011719 221.015625 353.199219 187.582031 353.199219 Z M 193.539062 344.546875 C 190.433594 344.546875 187.804688 342.136719 187.582031 339 C 187.347656 335.710938 189.828125 332.84375 193.117188 332.605469 L 193.402344 332.589844 C 195.714844 332.589844 197.636719 333.785156 198.683594 335.558594 C 218.011719 330.566406 231.980469 313.039062 231.980469 292.597656 L 231.980469 210.132812 C 231.980469 209.035156 232.871094 208.140625 233.96875 208.140625 L 265.933594 208.140625 C 266.757812 205.816406 268.953125 204.144531 271.550781 204.144531 C 274.855469 204.144531 277.539062 206.828125 277.539062 210.132812 C 277.539062 213.4375 274.855469 216.121094 271.550781 216.121094 C 268.953125 216.121094 266.757812 214.449219 265.933594 212.121094 L 235.976562 212.121094 L 235.976562 292.578125 C 235.976562 314.945312 220.644531 334.105469 199.457031 339.453125 C 199.054688 342.152344 196.828125 344.3125 193.976562 344.515625 L 193.691406 344.53125 Z M 97.867188 286.390625 C 94.5625 286.390625 91.878906 283.707031 91.878906 280.402344 C 91.878906 277.09375 94.5625 274.414062 97.867188 274.414062 C 100.464844 274.414062 102.65625 276.082031 103.484375 278.410156 L 139.191406 278.410156 L 139.191406 215.160156 C 136.863281 214.332031 135.195312 212.140625 135.195312 209.542969 C 135.195312 206.234375 137.875 203.554688 141.183594 203.554688 C 144.488281 203.554688 147.167969 206.234375 147.167969 209.542969 C 147.167969 212.140625 145.5 214.332031 143.171875 215.160156 L 143.171875 280.402344 C 143.171875 281.5 142.277344 282.390625 141.183594 282.390625 L 103.484375 282.390625 C 102.65625 284.71875 100.464844 286.390625 97.867188 286.390625 Z M 105.894531 267.296875 C 102.589844 267.296875 99.90625 264.613281 99.90625 261.308594 C 99.90625 258 102.589844 255.320312 105.894531 255.320312 C 108.492188 255.320312 110.6875 256.988281 111.511719 259.316406 L 126.960938 259.316406 L 126.960938 192.304688 C 124.636719 191.476562 122.964844 189.285156 122.964844 186.6875 C 122.964844 183.382812 125.648438 180.699219 128.953125 180.699219 C 132.257812 180.699219 134.941406 183.382812 134.941406 186.6875 C 134.941406 189.285156 133.269531 191.476562 130.945312 192.304688 L 130.945312 261.308594 C 130.945312 262.402344 130.050781 263.296875 128.953125 263.296875 L 111.511719 263.296875 C 110.6875 265.625 108.492188 267.296875 105.894531 267.296875 Z M 192.289062 310.207031 C 185.222656 310.207031 179.488281 304.453125 179.488281 297.386719 L 179.488281 155.128906 L 181.476562 154.234375 L 203.117188 154.234375 C 204.214844 154.234375 205.109375 155.128906 205.109375 156.226562 L 205.109375 268.746094 C 207.4375 269.574219 209.105469 271.765625 209.105469 274.363281 C 209.105469 277.667969 206.425781 280.351562 203.117188 280.351562 C 199.8125 280.351562 197.128906 277.667969 197.128906 274.363281 C 197.128906 271.765625 198.800781 269.574219 201.128906 268.746094 L 201.128906 158.214844 L 183.453125 158.214844 L 183.453125 297.386719 C 183.453125 302.261719 187.414062 306.226562 192.289062 306.226562 L 195.933594 305.414062 C 195.425781 304.203125 195.292969 302.816406 195.695312 301.453125 C 196.457031 298.835938 198.851562 297.152344 201.433594 297.152344 L 202.546875 297.234375 C 206.273438 298.332031 208.09375 301.65625 207.167969 304.824219 C 206.40625 307.441406 204.011719 309.125 201.433594 309.125 L 200.300781 309.042969 L 199.375 308.773438 L 198.714844 308.46875 C 196.792969 309.582031 194.566406 310.207031 192.289062 310.207031 Z M 103.164062 218.683594 C 99.855469 218.683594 97.175781 216.003906 97.175781 212.695312 C 97.175781 210.097656 98.84375 207.90625 101.171875 207.078125 L 101.171875 170.445312 L 68.484375 170.445312 C 46.117188 170.445312 26.957031 155.113281 21.609375 133.925781 C 18.910156 133.519531 16.753906 131.292969 16.550781 128.445312 C 16.3125 125.15625 18.792969 122.289062 22.082031 122.050781 L 22.234375 122.035156 L 22.519531 122.035156 C 25.625 122.035156 28.253906 124.445312 28.476562 127.582031 C 28.644531 129.929688 27.410156 132.035156 25.523438 133.148438 C 30.515625 152.480469 48.039062 166.464844 68.484375 166.464844 L 103.164062 166.464844 C 104.257812 166.464844 105.152344 167.355469 105.152344 168.453125 L 105.152344 207.078125 C 107.480469 207.90625 109.152344 210.097656 109.152344 212.695312 C 109.152344 216.003906 106.46875 218.683594 103.164062 218.683594 Z M 125.207031 139.578125 L 125.207031 121.917969 L 74.605469 121.917969 L 74.605469 139.578125 Z M 72.617188 143.558594 L 70.625 142.664062 L 70.625 118.828125 L 72.617188 117.9375 L 127.199219 117.9375 C 128.296875 117.9375 129.1875 118.828125 129.1875 119.925781 L 129.1875 141.566406 C 129.1875 142.664062 128.296875 143.558594 127.199219 143.558594 Z M 170.464844 143.558594 L 168.472656 142.664062 L 168.472656 119.925781 C 168.472656 118.828125 169.367188 117.9375 170.464844 117.9375 L 262.375 117.9375 C 263.199219 115.609375 265.394531 113.9375 267.992188 113.9375 C 271.296875 113.9375 273.976562 116.621094 273.976562 119.925781 C 273.976562 123.230469 271.296875 125.914062 267.992188 125.914062 C 265.394531 125.914062 263.199219 124.246094 262.375 121.917969 L 172.453125 121.917969 L 172.453125 139.578125 L 309.382812 139.578125 C 314.257812 139.578125 318.222656 135.613281 318.222656 130.738281 L 317.410156 127.09375 C 316.6875 127.398438 315.894531 127.566406 315.066406 127.566406 L 313.988281 127.5 C 310.277344 126.421875 308.453125 123.097656 309.382812 119.925781 C 310.140625 117.3125 312.535156 115.625 315.117188 115.625 L 316.246094 115.710938 C 319.976562 116.804688 321.796875 120.128906 320.871094 123.300781 L 320.769531 123.671875 L 320.464844 124.34375 C 321.578125 126.269531 322.21875 128.476562 322.21875 130.773438 C 322.21875 137.839844 316.46875 143.589844 309.398438 143.589844 Z M 168.050781 289.8125 C 164.746094 289.8125 162.0625 287.132812 162.0625 283.824219 C 162.0625 281.226562 163.734375 279.035156 166.0625 278.207031 L 166.0625 158.214844 L 153.410156 158.214844 C 152.3125 158.214844 151.421875 157.320312 151.421875 156.226562 L 151.421875 104.558594 C 151.421875 103.464844 152.3125 102.570312 153.410156 102.570312 L 283.625 102.570312 C 284.453125 100.242188 286.644531 98.570312 289.242188 98.570312 C 292.550781 98.570312 295.230469 101.253906 295.230469 104.558594 C 295.230469 107.867188 292.550781 110.546875 289.242188 110.546875 C 286.644531 110.546875 284.453125 108.878906 283.625 106.550781 L 155.402344 106.550781 L 155.402344 154.234375 L 168.050781 154.234375 C 169.148438 154.234375 170.042969 155.128906 170.042969 156.226562 L 170.042969 278.226562 C 172.371094 279.050781 174.039062 281.246094 174.039062 283.84375 C 174.039062 287.148438 171.359375 289.832031 168.050781 289.832031 Z M 68.484375 158.214844 C 48.546875 158.214844 32.320312 141.988281 32.320312 122.050781 C 32.320312 102.113281 48.546875 85.886719 68.484375 85.886719 L 99.046875 85.886719 C 99.875 83.558594 102.066406 81.890625 104.664062 81.890625 C 107.96875 81.890625 110.652344 84.574219 110.652344 87.878906 C 110.652344 91.183594 107.96875 93.867188 104.664062 93.867188 C 102.066406 93.867188 99.875 92.195312 99.046875 89.867188 L 68.484375 89.867188 C 50.738281 89.867188 36.300781 104.308594 36.300781 122.050781 C 36.300781 139.796875 50.738281 154.234375 68.484375 154.234375 L 139.191406 154.234375 L 139.191406 106.550781 L 70.152344 106.550781 C 62.210938 106.550781 55.730469 113.027344 55.730469 120.972656 L 55.730469 126.050781 C 58.058594 126.875 59.730469 129.066406 59.730469 131.664062 C 59.730469 134.972656 57.046875 137.652344 53.742188 137.652344 C 50.4375 137.652344 47.753906 134.972656 47.753906 131.664062 C 47.753906 129.066406 49.425781 126.875 51.75 126.050781 L 51.75 120.957031 C 51.75 110.816406 60 102.554688 70.136719 102.554688 L 141.183594 102.554688 C 142.277344 102.554688 143.171875 103.445312 143.171875 104.542969 L 143.171875 156.226562 C 143.171875 157.320312 142.277344 158.214844 141.183594 158.214844 Z M 187.582031 328.742188 C 167.648438 328.742188 151.421875 312.515625 151.421875 292.578125 L 151.421875 170.445312 L 120.890625 170.445312 C 120.0625 172.769531 117.871094 174.441406 115.273438 174.441406 C 111.96875 174.441406 109.285156 171.757812 109.285156 168.453125 C 109.285156 165.148438 111.96875 162.464844 115.273438 162.464844 C 117.871094 162.464844 120.0625 164.136719 120.890625 166.464844 L 153.410156 166.464844 C 154.507812 166.464844 155.402344 167.355469 155.402344 168.453125 L 155.402344 292.578125 C 155.402344 310.324219 169.839844 324.761719 187.582031 324.761719 C 205.328125 324.761719 219.765625 310.324219 219.765625 292.578125 L 219.765625 156.226562 C 219.765625 155.128906 220.660156 154.234375 221.757812 154.234375 L 306.683594 154.234375 C 324.429688 154.234375 338.867188 139.796875 338.867188 122.050781 C 338.867188 104.308594 324.429688 89.867188 306.683594 89.867188 L 153.410156 89.867188 C 152.3125 89.867188 151.421875 88.976562 151.421875 87.878906 L 151.421875 77.640625 L 80.089844 77.640625 C 79.261719 79.96875 77.070312 81.636719 74.472656 81.636719 C 71.164062 81.636719 68.484375 78.957031 68.484375 75.648438 C 68.484375 72.34375 71.164062 69.660156 74.472656 69.660156 C 77.070312 69.660156 79.261719 71.332031 80.089844 73.660156 L 153.410156 73.660156 C 154.507812 73.660156 155.402344 74.554688 155.402344 75.648438 L 155.402344 85.886719 L 306.667969 85.886719 C 326.605469 85.886719 342.832031 102.113281 342.832031 122.050781 C 342.832031 141.988281 326.605469 158.214844 306.667969 158.214844 L 223.746094 158.214844 L 223.746094 292.578125 C 223.746094 312.515625 207.519531 328.742188 187.582031 328.742188 Z M 90.257812 186.671875 C 87.660156 186.671875 85.46875 185 84.644531 182.671875 L 68.484375 182.671875 C 35.054688 182.6875 7.863281 155.484375 7.863281 122.050781 C 7.863281 88.621094 35.054688 61.429688 68.484375 61.429688 L 145.195312 61.429688 C 146.023438 59.101562 148.214844 57.433594 150.8125 57.433594 C 154.121094 57.433594 156.800781 60.113281 156.800781 63.421875 C 156.800781 66.726562 154.121094 69.410156 150.8125 69.410156 C 148.214844 69.410156 146.023438 67.738281 145.195312 65.410156 L 68.484375 65.410156 C 37.246094 65.410156 11.84375 90.8125 11.84375 122.050781 C 11.84375 153.289062 37.246094 178.707031 68.484375 178.707031 L 84.625 178.707031 C 85.453125 176.382812 87.644531 174.710938 90.242188 174.710938 C 93.546875 174.710938 96.230469 177.394531 96.230469 180.699219 C 96.230469 184.003906 93.546875 186.6875 90.242188 186.6875 Z M 264.5 186.671875 C 261.191406 186.671875 258.511719 183.988281 258.511719 180.683594 C 258.511719 177.375 261.191406 174.695312 264.5 174.695312 C 267.097656 174.695312 269.289062 176.363281 270.117188 178.691406 L 306.683594 178.691406 C 337.921875 178.691406 363.339844 153.273438 363.339844 122.035156 C 363.339844 90.796875 337.921875 65.378906 306.683594 65.378906 L 190.316406 65.378906 C 189.21875 65.378906 188.324219 64.484375 188.324219 63.386719 L 188.324219 43.417969 C 186 42.589844 184.328125 40.398438 184.328125 37.800781 C 184.328125 34.492188 187.011719 31.8125 190.316406 31.8125 C 193.621094 31.8125 196.304688 34.492188 196.304688 37.800781 C 196.304688 40.398438 194.632812 42.589844 192.308594 43.417969 L 192.308594 61.429688 L 306.683594 61.429688 C 340.113281 61.429688 367.304688 88.621094 367.304688 122.050781 C 367.304688 155.484375 340.113281 182.671875 306.683594 182.671875 L 270.117188 182.671875 C 269.289062 185 267.097656 186.671875 264.5 186.671875 Z M 246.230469 197.550781 C 242.925781 197.550781 240.242188 194.867188 240.242188 191.5625 C 240.242188 188.964844 241.914062 186.769531 244.242188 185.945312 L 244.242188 168.453125 C 244.242188 167.355469 245.136719 166.464844 246.230469 166.464844 L 306.683594 166.464844 C 331.175781 166.464844 351.09375 146.542969 351.09375 122.050781 C 351.09375 97.558594 331.175781 77.640625 306.683594 77.640625 L 172.621094 77.640625 C 171.527344 77.640625 170.632812 76.746094 170.632812 75.648438 L 170.632812 34.644531 C 168.304688 33.820312 166.632812 31.625 166.632812 29.027344 C 166.652344 25.722656 169.316406 23.039062 172.621094 23.039062 C 175.929688 23.039062 178.609375 25.722656 178.609375 29.027344 C 178.609375 31.625 176.941406 33.820312 174.613281 34.644531 L 174.613281 73.660156 L 306.667969 73.660156 C 333.351562 73.660156 355.058594 95.367188 355.058594 122.050781 C 355.058594 148.734375 333.351562 170.445312 306.667969 170.445312 L 248.203125 170.445312 L 248.203125 185.960938 C 250.53125 186.789062 252.203125 188.980469 252.203125 191.578125 C 252.203125 194.882812 249.519531 197.566406 246.214844 197.566406 Z M 246.230469 197.550781 " clip-rule="nonzero"/></clipPath><linearGradient x1="0.039" gradientTransform="matrix(0, 334.108942, -334.108942, 0, 187.9476, 10.01023)" y1="0" x2="1.025056" gradientUnits="userSpaceOnUse" y2="0" id="6870bbe752"><stop stop-opacity="1" stop-color="rgb(97.4823%, 99.534607%, 99.612427%)" offset="0"/><stop stop-opacity="1" stop-color="rgb(97.233582%, 99.488831%, 99.57428%)" offset="0.00390625"/><stop stop-opacity="1" stop-color="rgb(96.984863%, 99.443054%, 99.537659%)" offset="0.0078125"/><stop stop-opacity="1" stop-color="rgb(96.736145%, 99.397278%, 99.499512%)" offset="0.0117188"/><stop stop-opacity="1" stop-color="rgb(96.487427%, 99.351501%, 99.461365%)" offset="0.015625"/><stop stop-opacity="1" stop-color="rgb(96.238708%, 99.304199%, 99.423218%)" offset="0.0195313"/><stop stop-opacity="1" stop-color="rgb(95.98999%, 99.258423%, 99.385071%)" offset="0.0234375"/><stop stop-opacity="1" stop-color="rgb(95.741272%, 99.212646%, 99.346924%)" offset="0.0273437"/><stop stop-opacity="1" stop-color="rgb(95.492554%, 99.16687%, 99.308777%)" offset="0.03125"/><stop stop-opacity="1" stop-color="rgb(95.243835%, 99.121094%, 99.27063%)" offset="0.0351562"/><stop stop-opacity="1" stop-color="rgb(94.995117%, 99.075317%, 99.232483%)" offset="0.0390625"/><stop stop-opacity="1" stop-color="rgb(94.746399%, 99.029541%, 99.194336%)" offset="0.0429688"/><stop stop-opacity="1" stop-color="rgb(94.499207%, 98.983765%, 99.156189%)" offset="0.046875"/><stop stop-opacity="1" stop-color="rgb(94.250488%, 98.937988%, 99.118042%)" offset="0.0507813"/><stop stop-opacity="1" stop-color="rgb(94.00177%, 98.892212%, 99.079895%)" offset="0.0546875"/><stop stop-opacity="1" stop-color="rgb(93.753052%, 98.84491%, 99.041748%)" offset="0.0585938"/><stop stop-opacity="1" stop-color="rgb(93.504333%, 98.799133%, 99.003601%)" offset="0.0625"/><stop stop-opacity="1" stop-color="rgb(93.255615%, 98.753357%, 98.965454%)" offset="0.0664062"/><stop stop-opacity="1" stop-color="rgb(93.006897%, 98.707581%, 98.927307%)" offset="0.0703125"/><stop stop-opacity="1" stop-color="rgb(92.758179%, 98.661804%, 98.88916%)" offset="0.0742187"/><stop stop-opacity="1" stop-color="rgb(92.50946%, 98.616028%, 98.851013%)" offset="0.078125"/><stop stop-opacity="1" stop-color="rgb(92.260742%, 98.570251%, 98.812866%)" offset="0.0820312"/><stop stop-opacity="1" stop-color="rgb(92.012024%, 98.524475%, 98.774719%)" offset="0.0859375"/><stop stop-opacity="1" stop-color="rgb(91.763306%, 98.478699%, 98.736572%)" offset="0.0898438"/><stop stop-opacity="1" stop-color="rgb(91.514587%, 98.432922%, 98.698425%)" offset="0.09375"/><stop stop-opacity="1" stop-color="rgb(91.265869%, 98.387146%, 98.660278%)" offset="0.0976562"/><stop stop-opacity="1" stop-color="rgb(91.018677%, 98.34137%, 98.622131%)" offset="0.101562"/><stop stop-opacity="1" stop-color="rgb(90.769958%, 98.294067%, 98.583984%)" offset="0.105469"/><stop stop-opacity="1" stop-color="rgb(90.52124%, 98.248291%, 98.545837%)" offset="0.109375"/><stop stop-opacity="1" stop-color="rgb(90.272522%, 98.202515%, 98.50769%)" offset="0.113281"/><stop stop-opacity="1" stop-color="rgb(90.023804%, 98.156738%, 98.469543%)" offset="0.117187"/><stop stop-opacity="1" stop-color="rgb(89.775085%, 98.110962%, 98.431396%)" offset="0.121094"/><stop stop-opacity="1" stop-color="rgb(89.526367%, 98.065186%, 98.39325%)" offset="0.125"/><stop stop-opacity="1" stop-color="rgb(89.277649%, 98.019409%, 98.355103%)" offset="0.128906"/><stop stop-opacity="1" stop-color="rgb(89.028931%, 97.973633%, 98.316956%)" offset="0.132812"/><stop stop-opacity="1" stop-color="rgb(88.780212%, 97.927856%, 98.278809%)" offset="0.136719"/><stop stop-opacity="1" stop-color="rgb(88.531494%, 97.88208%, 98.240662%)" offset="0.140625"/><stop stop-opacity="1" stop-color="rgb(88.282776%, 97.836304%, 98.202515%)" offset="0.144531"/><stop stop-opacity="1" stop-color="rgb(88.034058%, 97.790527%, 98.164368%)" offset="0.148438"/><stop stop-opacity="1" stop-color="rgb(87.785339%, 97.743225%, 98.126221%)" offset="0.152344"/><stop stop-opacity="1" stop-color="rgb(87.536621%, 97.697449%, 98.088074%)" offset="0.15625"/><stop stop-opacity="1" stop-color="rgb(87.287903%, 97.651672%, 98.049927%)" offset="0.160156"/><stop stop-opacity="1" stop-color="rgb(87.04071%, 97.605896%, 98.01178%)" offset="0.164062"/><stop stop-opacity="1" stop-color="rgb(86.791992%, 97.56012%, 97.973633%)" offset="0.167969"/><stop stop-opacity="1" stop-color="rgb(86.543274%, 97.514343%, 97.935486%)" offset="0.171875"/><stop stop-opacity="1" stop-color="rgb(86.294556%, 97.468567%, 97.897339%)" offset="0.175781"/><stop stop-opacity="1" stop-color="rgb(86.045837%, 97.422791%, 97.859192%)" offset="0.179688"/><stop stop-opacity="1" stop-color="rgb(85.797119%, 97.377014%, 97.821045%)" offset="0.183594"/><stop stop-opacity="1" stop-color="rgb(85.548401%, 97.331238%, 97.782898%)" offset="0.1875"/><stop stop-opacity="1" stop-color="rgb(85.299683%, 97.283936%, 97.744751%)" offset="0.191406"/><stop stop-opacity="1" stop-color="rgb(85.050964%, 97.238159%, 97.706604%)" offset="0.195312"/><stop stop-opacity="1" stop-color="rgb(84.802246%, 97.192383%, 97.668457%)" offset="0.199219"/><stop stop-opacity="1" stop-color="rgb(84.553528%, 97.146606%, 97.63031%)" offset="0.203125"/><stop stop-opacity="1" stop-color="rgb(84.30481%, 97.10083%, 97.592163%)" offset="0.207031"/><stop stop-opacity="1" stop-color="rgb(84.056091%, 97.055054%, 97.554016%)" offset="0.210937"/><stop stop-opacity="1" stop-color="rgb(83.807373%, 97.009277%, 97.515869%)" offset="0.214844"/><stop stop-opacity="1" stop-color="rgb(83.560181%, 96.963501%, 97.477722%)" offset="0.21875"/><stop stop-opacity="1" stop-color="rgb(83.311462%, 96.917725%, 97.439575%)" offset="0.222656"/><stop stop-opacity="1" stop-color="rgb(83.062744%, 96.871948%, 97.401428%)" offset="0.226562"/><stop stop-opacity="1" stop-color="rgb(82.814026%, 96.826172%, 97.363281%)" offset="0.230469"/><stop stop-opacity="1" stop-color="rgb(82.565308%, 96.780396%, 97.325134%)" offset="0.234375"/><stop stop-opacity="1" stop-color="rgb(82.316589%, 96.733093%, 97.286987%)" offset="0.238281"/><stop stop-opacity="1" stop-color="rgb(82.067871%, 96.687317%, 97.24884%)" offset="0.242188"/><stop stop-opacity="1" stop-color="rgb(81.819153%, 96.641541%, 97.210693%)" offset="0.246094"/><stop stop-opacity="1" stop-color="rgb(81.570435%, 96.595764%, 97.172546%)" offset="0.25"/><stop stop-opacity="1" stop-color="rgb(81.321716%, 96.549988%, 97.134399%)" offset="0.253906"/><stop stop-opacity="1" stop-color="rgb(81.072998%, 96.504211%, 97.096252%)" offset="0.257813"/><stop stop-opacity="1" stop-color="rgb(80.82428%, 96.458435%, 97.058105%)" offset="0.261719"/><stop stop-opacity="1" stop-color="rgb(80.575562%, 96.412659%, 97.019958%)" offset="0.265625"/><stop stop-opacity="1" stop-color="rgb(80.326843%, 96.366882%, 96.981812%)" offset="0.269531"/><stop stop-opacity="1" stop-color="rgb(80.079651%, 96.321106%, 96.943665%)" offset="0.273438"/><stop stop-opacity="1" stop-color="rgb(79.830933%, 96.27533%, 96.905518%)" offset="0.277344"/><stop stop-opacity="1" stop-color="rgb(79.582214%, 96.229553%, 96.867371%)" offset="0.28125"/><stop stop-opacity="1" stop-color="rgb(79.333496%, 96.182251%, 96.829224%)" offset="0.285156"/><stop stop-opacity="1" stop-color="rgb(79.084778%, 96.136475%, 96.791077%)" offset="0.289063"/><stop stop-opacity="1" stop-color="rgb(78.83606%, 96.090698%, 96.75293%)" offset="0.292969"/><stop stop-opacity="1" stop-color="rgb(78.587341%, 96.044922%, 96.714783%)" offset="0.296875"/><stop stop-opacity="1" stop-color="rgb(78.338623%, 95.999146%, 96.676636%)" offset="0.300781"/><stop stop-opacity="1" stop-color="rgb(78.089905%, 95.953369%, 96.638489%)" offset="0.304688"/><stop stop-opacity="1" stop-color="rgb(77.841187%, 95.907593%, 96.600342%)" offset="0.308594"/><stop stop-opacity="1" stop-color="rgb(77.592468%, 95.861816%, 96.562195%)" offset="0.3125"/><stop stop-opacity="1" stop-color="rgb(77.34375%, 95.81604%, 96.524048%)" offset="0.316406"/><stop stop-opacity="1" stop-color="rgb(77.095032%, 95.770264%, 96.485901%)" offset="0.320313"/><stop stop-opacity="1" stop-color="rgb(76.846313%, 95.722961%, 96.447754%)" offset="0.324219"/><stop stop-opacity="1" stop-color="rgb(76.597595%, 95.677185%, 96.409607%)" offset="0.328125"/><stop stop-opacity="1" stop-color="rgb(76.348877%, 95.631409%, 96.37146%)" offset="0.332031"/><stop stop-opacity="1" stop-color="rgb(76.101685%, 95.585632%, 96.334839%)" offset="0.335938"/><stop stop-opacity="1" stop-color="rgb(75.852966%, 95.539856%, 96.296692%)" offset="0.339844"/><stop stop-opacity="1" stop-color="rgb(75.604248%, 95.49408%, 96.258545%)" offset="0.34375"/><stop stop-opacity="1" stop-color="rgb(75.35553%, 95.448303%, 96.220398%)" offset="0.347656"/><stop stop-opacity="1" stop-color="rgb(75.106812%, 95.402527%, 96.182251%)" offset="0.351563"/><stop stop-opacity="1" stop-color="rgb(74.858093%, 95.35675%, 96.144104%)" offset="0.355469"/><stop stop-opacity="1" stop-color="rgb(74.609375%, 95.310974%, 96.105957%)" offset="0.359375"/><stop stop-opacity="1" stop-color="rgb(74.360657%, 95.265198%, 96.06781%)" offset="0.363281"/><stop stop-opacity="1" stop-color="rgb(74.111938%, 95.219421%, 96.029663%)" offset="0.367188"/><stop stop-opacity="1" stop-color="rgb(73.86322%, 95.172119%, 95.991516%)" offset="0.371094"/><stop stop-opacity="1" stop-color="rgb(73.614502%, 95.126343%, 95.953369%)" offset="0.375"/><stop stop-opacity="1" stop-color="rgb(73.365784%, 95.080566%, 95.915222%)" offset="0.378906"/><stop stop-opacity="1" stop-color="rgb(73.117065%, 95.03479%, 95.877075%)" offset="0.382813"/><stop stop-opacity="1" stop-color="rgb(72.868347%, 94.989014%, 95.838928%)" offset="0.386719"/><stop stop-opacity="1" stop-color="rgb(72.621155%, 94.943237%, 95.800781%)" offset="0.390625"/><stop stop-opacity="1" stop-color="rgb(72.372437%, 94.897461%, 95.762634%)" offset="0.394531"/><stop stop-opacity="1" stop-color="rgb(72.123718%, 94.851685%, 95.724487%)" offset="0.398438"/><stop stop-opacity="1" stop-color="rgb(71.875%, 94.805908%, 95.68634%)" offset="0.402344"/><stop stop-opacity="1" stop-color="rgb(71.626282%, 94.760132%, 95.648193%)" offset="0.40625"/><stop stop-opacity="1" stop-color="rgb(71.377563%, 94.714355%, 95.610046%)" offset="0.410156"/><stop stop-opacity="1" stop-color="rgb(71.128845%, 94.668579%, 95.571899%)" offset="0.414062"/><stop stop-opacity="1" stop-color="rgb(70.880127%, 94.621277%, 95.533752%)" offset="0.417969"/><stop stop-opacity="1" stop-color="rgb(70.631409%, 94.5755%, 95.495605%)" offset="0.421875"/><stop stop-opacity="1" stop-color="rgb(70.38269%, 94.529724%, 95.457458%)" offset="0.425781"/><stop stop-opacity="1" stop-color="rgb(70.133972%, 94.483948%, 95.419312%)" offset="0.429688"/><stop stop-opacity="1" stop-color="rgb(69.885254%, 94.438171%, 95.381165%)" offset="0.433594"/><stop stop-opacity="1" stop-color="rgb(69.636536%, 94.392395%, 95.343018%)" offset="0.4375"/><stop stop-opacity="1" stop-color="rgb(69.387817%, 94.346619%, 95.304871%)" offset="0.441406"/><stop stop-opacity="1" stop-color="rgb(69.139099%, 94.300842%, 95.266724%)" offset="0.445312"/><stop stop-opacity="1" stop-color="rgb(68.890381%, 94.255066%, 95.228577%)" offset="0.449219"/><stop stop-opacity="1" stop-color="rgb(68.643188%, 94.20929%, 95.19043%)" offset="0.453125"/><stop stop-opacity="1" stop-color="rgb(68.39447%, 94.163513%, 95.152283%)" offset="0.457031"/><stop stop-opacity="1" stop-color="rgb(68.145752%, 94.117737%, 95.114136%)" offset="0.460938"/><stop stop-opacity="1" stop-color="rgb(67.897034%, 94.070435%, 95.075989%)" offset="0.464844"/><stop stop-opacity="1" stop-color="rgb(67.648315%, 94.024658%, 95.037842%)" offset="0.46875"/><stop stop-opacity="1" stop-color="rgb(67.399597%, 93.978882%, 94.999695%)" offset="0.472656"/><stop stop-opacity="1" stop-color="rgb(67.150879%, 93.933105%, 94.961548%)" offset="0.476563"/><stop stop-opacity="1" stop-color="rgb(66.902161%, 93.887329%, 94.923401%)" offset="0.480469"/><stop stop-opacity="1" stop-color="rgb(66.653442%, 93.841553%, 94.885254%)" offset="0.484375"/><stop stop-opacity="1" stop-color="rgb(66.404724%, 93.795776%, 94.847107%)" offset="0.488281"/><stop stop-opacity="1" stop-color="rgb(66.156006%, 93.75%, 94.80896%)" offset="0.492188"/><stop stop-opacity="1" stop-color="rgb(65.907288%, 93.704224%, 94.770813%)" offset="0.496094"/><stop stop-opacity="1" stop-color="rgb(65.658569%, 93.658447%, 94.732666%)" offset="0.5"/><stop stop-opacity="1" stop-color="rgb(65.409851%, 93.611145%, 94.694519%)" offset="0.503906"/><stop stop-opacity="1" stop-color="rgb(65.162659%, 93.565369%, 94.656372%)" offset="0.507813"/><stop stop-opacity="1" stop-color="rgb(64.91394%, 93.519592%, 94.618225%)" offset="0.511719"/><stop stop-opacity="1" stop-color="rgb(64.665222%, 93.473816%, 94.580078%)" offset="0.515625"/><stop stop-opacity="1" stop-color="rgb(64.416504%, 93.42804%, 94.541931%)" offset="0.519531"/><stop stop-opacity="1" stop-color="rgb(64.167786%, 93.382263%, 94.503784%)" offset="0.523438"/><stop stop-opacity="1" stop-color="rgb(63.919067%, 93.336487%, 94.465637%)" offset="0.527344"/><stop stop-opacity="1" stop-color="rgb(63.670349%, 93.29071%, 94.42749%)" offset="0.53125"/><stop stop-opacity="1" stop-color="rgb(63.421631%, 93.244934%, 94.389343%)" offset="0.535156"/><stop stop-opacity="1" stop-color="rgb(63.172913%, 93.199158%, 94.351196%)" offset="0.539062"/><stop stop-opacity="1" stop-color="rgb(62.924194%, 93.153381%, 94.313049%)" offset="0.542969"/><stop stop-opacity="1" stop-color="rgb(62.675476%, 93.107605%, 94.274902%)" offset="0.546875"/><stop stop-opacity="1" stop-color="rgb(62.426758%, 93.060303%, 94.236755%)" offset="0.550781"/><stop stop-opacity="1" stop-color="rgb(62.17804%, 93.014526%, 94.198608%)" offset="0.554688"/><stop stop-opacity="1" stop-color="rgb(61.929321%, 92.96875%, 94.160461%)" offset="0.558594"/><stop stop-opacity="1" stop-color="rgb(61.682129%, 92.922974%, 94.122314%)" offset="0.5625"/><stop stop-opacity="1" stop-color="rgb(61.433411%, 92.877197%, 94.084167%)" offset="0.566406"/><stop stop-opacity="1" stop-color="rgb(61.184692%, 92.831421%, 94.046021%)" offset="0.570312"/><stop stop-opacity="1" stop-color="rgb(60.935974%, 92.785645%, 94.007874%)" offset="0.574219"/><stop stop-opacity="1" stop-color="rgb(60.687256%, 92.739868%, 93.969727%)" offset="0.578125"/><stop stop-opacity="1" stop-color="rgb(60.438538%, 92.694092%, 93.93158%)" offset="0.582031"/><stop stop-opacity="1" stop-color="rgb(60.189819%, 92.648315%, 93.893433%)" offset="0.585938"/><stop stop-opacity="1" stop-color="rgb(59.941101%, 92.602539%, 93.855286%)" offset="0.589844"/><stop stop-opacity="1" stop-color="rgb(59.692383%, 92.556763%, 93.817139%)" offset="0.59375"/><stop stop-opacity="1" stop-color="rgb(59.443665%, 92.50946%, 93.778992%)" offset="0.597656"/><stop stop-opacity="1" stop-color="rgb(59.194946%, 92.463684%, 93.740845%)" offset="0.601562"/><stop stop-opacity="1" stop-color="rgb(58.946228%, 92.417908%, 93.702698%)" offset="0.605469"/><stop stop-opacity="1" stop-color="rgb(58.69751%, 92.372131%, 93.664551%)" offset="0.609375"/><stop stop-opacity="1" stop-color="rgb(58.448792%, 92.326355%, 93.626404%)" offset="0.613281"/><stop stop-opacity="1" stop-color="rgb(58.200073%, 92.280579%, 93.588257%)" offset="0.617188"/><stop stop-opacity="1" stop-color="rgb(57.951355%, 92.234802%, 93.55011%)" offset="0.621094"/><stop stop-opacity="1" stop-color="rgb(57.704163%, 92.189026%, 93.511963%)" offset="0.625"/><stop stop-opacity="1" stop-color="rgb(57.455444%, 92.14325%, 93.473816%)" offset="0.628906"/><stop stop-opacity="1" stop-color="rgb(57.206726%, 92.097473%, 93.435669%)" offset="0.632812"/><stop stop-opacity="1" stop-color="rgb(56.958008%, 92.050171%, 93.397522%)" offset="0.636719"/><stop stop-opacity="1" stop-color="rgb(56.70929%, 92.004395%, 93.359375%)" offset="0.640625"/><stop stop-opacity="1" stop-color="rgb(56.460571%, 91.958618%, 93.321228%)" offset="0.644531"/><stop stop-opacity="1" stop-color="rgb(56.211853%, 91.912842%, 93.283081%)" offset="0.648438"/><stop stop-opacity="1" stop-color="rgb(55.963135%, 91.867065%, 93.244934%)" offset="0.652344"/><stop stop-opacity="1" stop-color="rgb(55.714417%, 91.821289%, 93.206787%)" offset="0.65625"/><stop stop-opacity="1" stop-color="rgb(55.465698%, 91.775513%, 93.16864%)" offset="0.660156"/><stop stop-opacity="1" stop-color="rgb(55.21698%, 91.729736%, 93.132019%)" offset="0.664062"/><stop stop-opacity="1" stop-color="rgb(54.968262%, 91.68396%, 93.093872%)" offset="0.667969"/><stop stop-opacity="1" stop-color="rgb(54.719543%, 91.638184%, 93.055725%)" offset="0.671875"/><stop stop-opacity="1" stop-color="rgb(54.470825%, 91.592407%, 93.017578%)" offset="0.675781"/><stop stop-opacity="1" stop-color="rgb(54.223633%, 91.546631%, 92.979431%)" offset="0.679688"/><stop stop-opacity="1" stop-color="rgb(53.974915%, 91.499329%, 92.941284%)" offset="0.683594"/><stop stop-opacity="1" stop-color="rgb(53.726196%, 91.453552%, 92.903137%)" offset="0.6875"/><stop stop-opacity="1" stop-color="rgb(53.477478%, 91.407776%, 92.86499%)" offset="0.691406"/><stop stop-opacity="1" stop-color="rgb(53.22876%, 91.362%, 92.826843%)" offset="0.695312"/><stop stop-opacity="1" stop-color="rgb(52.980042%, 91.316223%, 92.788696%)" offset="0.699219"/><stop stop-opacity="1" stop-color="rgb(52.731323%, 91.270447%, 92.750549%)" offset="0.703125"/><stop stop-opacity="1" stop-color="rgb(52.482605%, 91.22467%, 92.712402%)" offset="0.707031"/><stop stop-opacity="1" stop-color="rgb(52.233887%, 91.178894%, 92.674255%)" offset="0.710938"/><stop stop-opacity="1" stop-color="rgb(51.985168%, 91.133118%, 92.636108%)" offset="0.714844"/><stop stop-opacity="1" stop-color="rgb(51.73645%, 91.087341%, 92.597961%)" offset="0.71875"/><stop stop-opacity="1" stop-color="rgb(51.487732%, 91.041565%, 92.559814%)" offset="0.722656"/><stop stop-opacity="1" stop-color="rgb(51.239014%, 90.995789%, 92.521667%)" offset="0.726562"/><stop stop-opacity="1" stop-color="rgb(50.990295%, 90.948486%, 92.483521%)" offset="0.730469"/><stop stop-opacity="1" stop-color="rgb(50.741577%, 90.90271%, 92.445374%)" offset="0.734375"/><stop stop-opacity="1" stop-color="rgb(50.492859%, 90.856934%, 92.407227%)" offset="0.738281"/><stop stop-opacity="1" stop-color="rgb(50.245667%, 90.811157%, 92.36908%)" offset="0.742188"/><stop stop-opacity="1" stop-color="rgb(49.996948%, 90.765381%, 92.330933%)" offset="0.746094"/><stop stop-opacity="1" stop-color="rgb(49.74823%, 90.719604%, 92.292786%)" offset="0.75"/><stop stop-opacity="1" stop-color="rgb(49.499512%, 90.673828%, 92.254639%)" offset="0.753906"/><stop stop-opacity="1" stop-color="rgb(49.250793%, 90.628052%, 92.216492%)" offset="0.757812"/><stop stop-opacity="1" stop-color="rgb(49.002075%, 90.582275%, 92.178345%)" offset="0.761719"/><stop stop-opacity="1" stop-color="rgb(48.753357%, 90.536499%, 92.140198%)" offset="0.765625"/><stop stop-opacity="1" stop-color="rgb(48.504639%, 90.489197%, 92.102051%)" offset="0.769531"/><stop stop-opacity="1" stop-color="rgb(48.25592%, 90.44342%, 92.063904%)" offset="0.773438"/><stop stop-opacity="1" stop-color="rgb(48.007202%, 90.397644%, 92.025757%)" offset="0.777344"/><stop stop-opacity="1" stop-color="rgb(47.758484%, 90.351868%, 91.98761%)" offset="0.78125"/><stop stop-opacity="1" stop-color="rgb(47.509766%, 90.306091%, 91.949463%)" offset="0.785156"/><stop stop-opacity="1" stop-color="rgb(47.261047%, 90.260315%, 91.911316%)" offset="0.789062"/><stop stop-opacity="1" stop-color="rgb(47.012329%, 90.214539%, 91.873169%)" offset="0.792969"/><stop stop-opacity="1" stop-color="rgb(46.765137%, 90.168762%, 91.835022%)" offset="0.796875"/><stop stop-opacity="1" stop-color="rgb(46.516418%, 90.122986%, 91.796875%)" offset="0.800781"/><stop stop-opacity="1" stop-color="rgb(46.2677%, 90.077209%, 91.758728%)" offset="0.804688"/><stop stop-opacity="1" stop-color="rgb(46.018982%, 90.031433%, 91.720581%)" offset="0.808594"/><stop stop-opacity="1" stop-color="rgb(45.770264%, 89.985657%, 91.682434%)" offset="0.8125"/><stop stop-opacity="1" stop-color="rgb(45.521545%, 89.938354%, 91.644287%)" offset="0.816406"/><stop stop-opacity="1" stop-color="rgb(45.272827%, 89.892578%, 91.60614%)" offset="0.820313"/><stop stop-opacity="1" stop-color="rgb(45.024109%, 89.846802%, 91.567993%)" offset="0.824219"/><stop stop-opacity="1" stop-color="rgb(44.775391%, 89.801025%, 91.529846%)" offset="0.828125"/><stop stop-opacity="1" stop-color="rgb(44.526672%, 89.755249%, 91.491699%)" offset="0.832031"/><stop stop-opacity="1" stop-color="rgb(44.277954%, 89.709473%, 91.453552%)" offset="0.835938"/><stop stop-opacity="1" stop-color="rgb(44.029236%, 89.663696%, 91.415405%)" offset="0.839844"/><stop stop-opacity="1" stop-color="rgb(43.780518%, 89.61792%, 91.377258%)" offset="0.84375"/><stop stop-opacity="1" stop-color="rgb(43.531799%, 89.572144%, 91.339111%)" offset="0.847656"/><stop stop-opacity="1" stop-color="rgb(43.284607%, 89.526367%, 91.300964%)" offset="0.851563"/><stop stop-opacity="1" stop-color="rgb(43.035889%, 89.480591%, 91.262817%)" offset="0.855469"/><stop stop-opacity="1" stop-color="rgb(42.78717%, 89.434814%, 91.22467%)" offset="0.859375"/><stop stop-opacity="1" stop-color="rgb(42.538452%, 89.387512%, 91.186523%)" offset="0.863281"/><stop stop-opacity="1" stop-color="rgb(42.289734%, 89.341736%, 91.148376%)" offset="0.867188"/><stop stop-opacity="1" stop-color="rgb(42.041016%, 89.295959%, 91.110229%)" offset="0.871094"/><stop stop-opacity="1" stop-color="rgb(41.792297%, 89.250183%, 91.072083%)" offset="0.875"/><stop stop-opacity="1" stop-color="rgb(41.543579%, 89.204407%, 91.033936%)" offset="0.878906"/><stop stop-opacity="1" stop-color="rgb(41.294861%, 89.15863%, 90.995789%)" offset="0.882813"/><stop stop-opacity="1" stop-color="rgb(41.046143%, 89.112854%, 90.957642%)" offset="0.886719"/><stop stop-opacity="1" stop-color="rgb(40.797424%, 89.067078%, 90.919495%)" offset="0.890625"/><stop stop-opacity="1" stop-color="rgb(40.548706%, 89.021301%, 90.881348%)" offset="0.894531"/><stop stop-opacity="1" stop-color="rgb(40.299988%, 88.975525%, 90.843201%)" offset="0.898438"/><stop stop-opacity="1" stop-color="rgb(40.05127%, 88.929749%, 90.805054%)" offset="0.902344"/><stop stop-opacity="1" stop-color="rgb(39.802551%, 88.883972%, 90.766907%)" offset="0.90625"/><stop stop-opacity="1" stop-color="rgb(39.553833%, 88.83667%, 90.72876%)" offset="0.910156"/><stop stop-opacity="1" stop-color="rgb(39.306641%, 88.790894%, 90.690613%)" offset="0.914062"/><stop stop-opacity="1" stop-color="rgb(39.057922%, 88.745117%, 90.652466%)" offset="0.917969"/><stop stop-opacity="1" stop-color="rgb(38.809204%, 88.699341%, 90.614319%)" offset="0.921875"/><stop stop-opacity="1" stop-color="rgb(38.560486%, 88.653564%, 90.576172%)" offset="0.925781"/><stop stop-opacity="1" stop-color="rgb(38.311768%, 88.607788%, 90.538025%)" offset="0.929688"/><stop stop-opacity="1" stop-color="rgb(38.063049%, 88.562012%, 90.499878%)" offset="0.933594"/><stop stop-opacity="1" stop-color="rgb(37.814331%, 88.516235%, 90.461731%)" offset="0.9375"/><stop stop-opacity="1" stop-color="rgb(37.565613%, 88.470459%, 90.423584%)" offset="0.941406"/><stop stop-opacity="1" stop-color="rgb(37.316895%, 88.424683%, 90.385437%)" offset="0.945312"/><stop stop-opacity="1" stop-color="rgb(37.068176%, 88.37738%, 90.34729%)" offset="0.949219"/><stop stop-opacity="1" stop-color="rgb(36.819458%, 88.331604%, 90.309143%)" offset="0.953125"/><stop stop-opacity="1" stop-color="rgb(36.57074%, 88.285828%, 90.270996%)" offset="0.957031"/><stop stop-opacity="1" stop-color="rgb(36.322021%, 88.240051%, 90.232849%)" offset="0.960938"/><stop stop-opacity="1" stop-color="rgb(36.210632%, 88.218689%, 90.216064%)" offset="0.96875"/><stop stop-opacity="1" stop-color="rgb(36.099243%, 88.198853%, 90.19928%)" offset="1"/></linearGradient></defs><g clip-path="url(#d0baa91c0d)"><g clip-path="url(#e40a2e6bcf)"><path fill="url(#6870bbe752)" d="M 367.113281 23.039062 L 7.863281 23.039062 L 7.863281 352.492188 L 367.113281 352.492188 Z M 367.113281 23.039062 " fill-rule="nonzero"/></g></g></svg>