<svg version="1.1" id="Layer_1" xmlns="http://www.w3.org/2000/svg" xmlns:xlink="http://www.w3.org/1999/xlink" x="0px" y="0px"
	 width="100%" viewBox="0 0 216 158" enable-background="new 0 0 216 158" xml:space="preserve">
<path fill="#F9FAFBFF" opacity="1.000000" stroke="none" 
	d="
M113.000000,159.000000 
	C75.690247,159.000000 38.380489,159.000000 1.035368,159.000000 
	C1.035368,106.390198 1.035368,53.780361 1.035368,1.085262 
	C72.897598,1.085262 144.795319,1.085262 216.846527,1.085262 
	C216.846527,53.666348 216.846527,106.333115 216.846527,159.000000 
	C200.917130,159.000000 184.927231,159.000000 168.514221,158.656067 
	C169.096954,157.517410 170.042618,156.628571 171.117386,155.941803 
	C194.701340,140.872406 205.381104,119.124985 201.648621,91.657791 
	C198.872314,71.226997 187.415375,55.497620 168.685623,46.021347 
	C163.979309,43.640202 158.452133,42.881489 153.095078,41.132927 
	C145.807114,31.650637 137.091125,31.346472 128.791504,40.051895 
	C124.601891,41.182053 120.830078,42.351833 117.039368,43.456745 
	C108.496101,45.946938 101.994080,54.197689 91.909286,52.382381 
	C91.749619,52.353638 91.498566,52.832642 90.541740,53.943962 
	C92.606522,55.030945 94.433502,55.992737 97.524605,57.620014 
	C93.514778,58.975105 90.510208,59.990479 87.155426,61.124203 
	C88.577721,61.769661 89.663284,62.262302 90.800140,62.778221 
	C81.238228,77.392433 77.172195,89.803085 78.305496,100.673424 
	C78.251152,101.530396 78.260025,102.107986 78.194176,103.139519 
	C78.420174,107.401199 78.720894,111.208939 78.550812,115.019196 
	C71.144798,115.515900 64.044144,114.007080 57.182274,116.472572 
	C57.832085,117.373352 58.519135,117.898666 59.208782,117.902107 
	C71.295883,117.962372 83.384354,118.031685 95.468987,117.855843 
	C96.670776,117.838356 97.849602,116.242302 99.318451,115.477188 
	C99.766518,115.678383 99.935219,115.781273 100.187569,115.939812 
	C100.271217,115.995453 100.657555,116.131012 100.986885,116.153259 
	C101.535583,116.192909 101.754944,116.210304 102.233780,116.469894 
	C104.186935,117.016541 105.880608,117.321007 107.639816,117.637260 
	C106.757095,112.520409 105.956520,107.879707 105.494232,103.224716 
	C106.939484,103.427063 108.046455,103.643692 109.111237,104.278732 
	C110.372124,108.139923 111.675201,111.582710 113.019028,115.376221 
	C122.411560,135.115540 150.259293,137.873718 161.357132,121.956497 
	C176.861206,107.915085 170.596786,78.535446 147.146088,72.310226 
	C143.796524,71.421051 142.672668,70.058540 143.399078,66.944427 
	C161.208557,67.091240 176.558853,86.031288 174.832169,104.110245 
	C173.072296,122.536484 160.101898,135.121002 141.530151,137.093964 
	C129.426880,136.696457 119.745171,132.276291 112.352097,123.052780 
	C110.232483,120.408363 107.607391,118.661263 103.595230,120.086098 
	C102.735413,119.996223 102.242683,119.958748 101.297211,119.935005 
	C94.337578,119.948730 87.830696,119.948730 80.609299,119.948730 
	C81.479881,122.315102 81.776566,123.590462 82.384247,124.694672 
	C85.536446,130.422562 88.768036,136.106735 91.566238,141.898071 
	C89.724663,142.243790 88.288803,142.497574 86.852936,142.751358 
	C86.883789,143.272461 86.914635,143.793549 86.945488,144.314651 
	C90.296616,144.544159 93.647736,144.773666 97.032333,145.349945 
	C98.375481,147.129181 99.526627,148.760559 101.025665,149.955475 
	C104.935776,153.072357 108.998276,155.998062 113.000000,159.000000 
z"/>
<path fill="#E5F3F9" opacity="1.000000" stroke="none" 
	d="
M153.302216,41.377163 
	C158.452133,42.881489 163.979309,43.640202 168.685623,46.021347 
	C187.415375,55.497620 198.872314,71.226997 201.648621,91.657791 
	C205.381104,119.124985 194.701340,140.872406 171.117386,155.941803 
	C170.042618,156.628571 169.096954,157.517410 168.045563,158.656067 
	C149.979111,159.000000 131.958206,159.000000 113.468658,159.000000 
	C108.998276,155.998062 104.935776,153.072357 101.025665,149.955475 
	C99.526627,148.760559 98.375481,147.129181 97.492516,145.250534 
	C111.500473,144.797958 125.082024,144.836655 138.662735,144.747742 
	C141.438034,144.729568 144.210175,144.232590 147.394684,144.003677 
	C148.580612,143.802902 149.355606,143.554779 150.463989,143.334167 
	C152.369812,142.844086 153.966690,142.390350 155.511047,141.799332 
	C180.817139,132.114822 191.113373,98.579247 175.270569,77.387405 
	C176.278564,75.790421 177.218979,74.505516 178.018036,73.413742 
	C175.180161,70.446182 172.580338,67.727547 169.832855,64.854500 
	C167.938141,66.293983 166.197662,67.616302 164.355927,68.747635 
	C163.852219,68.554520 163.449738,68.552368 163.469086,68.247330 
	C162.442627,66.612091 160.994354,65.279739 159.431885,63.729538 
	C158.719025,63.319092 158.120361,63.126499 157.303955,62.608311 
	C153.806870,61.127640 150.527481,59.972565 147.072144,58.755512 
	C148.682953,57.045780 149.968124,55.681667 151.568787,54.128574 
	C152.356903,49.752117 152.829559,45.564640 153.302216,41.377163 
z"/>
<path fill="#E1F0F8" opacity="1.000000" stroke="none" 
	d="
M78.368713,100.394043 
	C77.172195,89.803085 81.238228,77.392433 90.800140,62.778221 
	C89.663284,62.262302 88.577721,61.769661 87.155426,61.124203 
	C90.510208,59.990479 93.514778,58.975105 97.524605,57.620014 
	C94.433502,55.992737 92.606522,55.030945 90.541740,53.943962 
	C91.498566,52.832642 91.749619,52.353638 91.909286,52.382381 
	C101.994080,54.197689 108.496101,45.946938 117.039368,43.456745 
	C120.830078,42.351833 124.601891,41.182053 128.676178,40.409424 
	C128.821365,44.209351 128.672653,47.641571 128.405594,51.443192 
	C126.962021,52.450058 125.636780,53.087528 124.031631,53.859638 
	C127.638809,55.112793 130.883270,56.239933 133.877548,57.280163 
	C131.978745,59.299152 130.707626,60.650734 129.330444,61.822502 
	C128.888046,61.512127 128.666672,61.618942 128.579865,61.495216 
	C127.733879,61.022324 126.868248,61.017345 125.633377,61.015915 
	C111.573227,65.855911 103.282547,75.917274 98.412384,89.124756 
	C97.898407,90.518616 98.757973,92.418961 98.976395,94.469666 
	C98.531197,99.599892 95.919296,101.403061 91.235634,100.969574 
	C86.965477,100.574379 82.659119,100.570427 78.368713,100.394043 
z"/>
<path fill="#CDE9F2" opacity="1.000000" stroke="none" 
	d="
M141.952316,137.120911 
	C160.101898,135.121002 173.072296,122.536484 174.832169,104.110245 
	C176.558853,86.031288 161.208557,67.091240 143.057205,66.924690 
	C141.189148,66.619240 140.090515,66.332245 138.578918,66.032745 
	C136.381226,66.334694 134.600845,66.676468 132.811142,66.959351 
	C116.791351,69.491409 103.431374,86.082222 104.705795,100.861443 
	C99.673813,100.572678 100.599319,97.076050 101.369614,94.665588 
	C103.201584,88.932892 105.627800,83.390083 107.927460,77.495117 
	C108.697868,76.490189 109.354752,75.760689 110.353706,75.009125 
	C111.477196,73.994247 112.258606,73.001442 113.310143,71.875023 
	C114.312370,71.090828 115.044479,70.440254 116.123283,69.842148 
	C117.239723,69.187279 118.009476,68.479935 118.781059,67.742630 
	C118.782890,67.712662 118.771217,67.653778 119.140640,67.732361 
	C120.138275,67.623787 120.821297,67.538635 121.386719,67.234688 
	C138.695236,57.930386 162.866943,64.097992 173.071884,82.523003 
	C181.943939,98.541443 179.355545,118.658333 163.737427,131.101471 
	C159.709671,134.310425 155.241608,136.966690 150.743134,139.973724 
	C150.295822,140.317978 150.081223,140.565323 149.844635,140.844666 
	C149.822678,140.876663 149.814865,140.799454 149.517456,140.751190 
	C148.823730,140.639297 148.427429,140.575668 147.729095,140.345001 
	C145.602158,139.158951 143.777237,138.139923 141.952316,137.120911 
z"/>
<path fill="#E0EFF8" opacity="1.000000" stroke="none" 
	d="
M91.971954,141.806152 
	C88.768036,136.106735 85.536446,130.422562 82.384247,124.694672 
	C81.776566,123.590462 81.479881,122.315102 80.609299,119.948730 
	C87.830696,119.948730 94.337578,119.948730 101.306335,120.318192 
	C104.963692,125.548630 108.159164,130.409607 111.421448,135.372238 
	C109.211838,135.692551 106.742508,136.050507 104.273170,136.408463 
	C109.801178,139.691849 116.916435,135.619766 121.705757,141.806152 
	C111.479698,141.806152 101.725830,141.806152 91.971954,141.806152 
z"/>
<path fill="#F4F8FB" opacity="1.000000" stroke="none" 
	d="
M138.991882,66.045258 
	C140.090515,66.332245 141.189148,66.619240 142.629669,66.925964 
	C142.672668,70.058540 143.796524,71.421051 147.146088,72.310226 
	C170.596786,78.535446 176.861206,107.915085 161.216217,121.667267 
	C159.487961,120.281693 158.239136,119.131699 157.030426,117.624695 
	C160.238617,111.808418 162.599548,106.304268 162.118576,99.604095 
	C161.353302,88.943680 152.526642,79.444519 142.038239,79.058540 
	C141.513840,76.986671 141.484619,75.066269 141.004913,73.265892 
	C140.771362,72.389374 139.696457,71.737030 138.997986,70.570801 
	C138.992996,68.787346 138.992447,67.416306 138.991882,66.045258 
z"/>
<path fill="#E8F2F5" opacity="1.000000" stroke="none" 
	d="
M156.990326,117.981697 
	C158.239136,119.131699 159.487961,120.281693 160.877686,121.720932 
	C150.259293,137.873718 122.411560,135.115540 113.412895,115.359741 
	C115.818550,114.652916 117.871086,114.313293 120.234116,114.123276 
	C127.501045,125.686699 139.694992,126.056824 150.405106,121.948639 
	C152.760788,121.045052 154.803497,119.325508 156.990326,117.981697 
z"/>
<path fill="#3B6CD8" opacity="1.000000" stroke="none" 
	d="
M91.566246,141.898071 
	C101.725830,141.806152 111.479698,141.806152 121.705757,141.806152 
	C116.916435,135.619766 109.801178,139.691849 104.273170,136.408463 
	C106.742508,136.050507 109.211838,135.692551 111.421448,135.372238 
	C108.159164,130.409607 104.963692,125.548630 101.759094,120.304466 
	C102.242683,119.958748 102.735413,119.996223 103.726601,120.394287 
	C112.258347,132.936447 122.295052,141.920105 138.197876,142.184326 
	C139.958908,142.261215 141.495911,142.051514 143.377777,141.816986 
	C144.413818,141.777100 145.104980,141.762009 146.063660,141.947205 
	C146.548737,142.750427 146.766266,143.353363 146.983780,143.956314 
	C144.210175,144.232590 141.438034,144.729568 138.662735,144.747742 
	C125.082024,144.836655 111.500473,144.797958 97.459045,144.903778 
	C93.647736,144.773666 90.296616,144.544159 86.945488,144.314651 
	C86.914635,143.793549 86.883789,143.272461 86.852936,142.751358 
	C88.288803,142.497574 89.724663,142.243790 91.566246,141.898071 
z"/>
<path fill="#B5DEED" opacity="1.000000" stroke="none" 
	d="
M137.973831,141.897736 
	C122.295052,141.920105 112.258347,132.936447 104.093697,120.446686 
	C107.607391,118.661263 110.232483,120.408363 112.352097,123.052780 
	C119.745171,132.276291 129.426880,136.696457 141.530151,137.093964 
	C143.777237,138.139923 145.602158,139.158951 147.442734,140.497299 
	C146.904297,141.126724 146.350220,141.436813 145.796127,141.746918 
	C145.104980,141.762009 144.413818,141.777100 143.117340,141.595459 
	C140.999298,141.565079 139.486557,141.731400 137.973831,141.897736 
z"/>
<path fill="#E1F2F8" opacity="1.000000" stroke="none" 
	d="
M79.021622,115.016678 
	C78.720894,111.208939 78.420174,107.401199 78.628082,103.229446 
	C85.044960,102.914391 90.953186,102.963356 96.886658,103.455231 
	C97.491951,107.525627 98.071999,111.153114 98.146118,114.841583 
	C91.433998,114.940613 85.227806,114.978645 79.021622,115.016678 
z"/>
<path fill="#8DC9E4" opacity="1.000000" stroke="none" 
	d="
M96.861420,103.012314 
	C90.953186,102.963356 85.044960,102.914391 78.702820,102.775497 
	C78.260025,102.107986 78.251152,101.530396 78.305496,100.673424 
	C82.659119,100.570427 86.965477,100.574379 91.235634,100.969574 
	C95.919296,101.403061 98.531197,99.599892 99.142387,94.123917 
	C99.574646,92.474022 99.764328,91.526718 100.111473,90.641151 
	C101.960396,85.924606 102.630989,80.493324 107.813919,77.770554 
	C105.627800,83.390083 103.201584,88.932892 101.369614,94.665588 
	C100.599319,97.076050 99.673813,100.572678 105.097610,100.911438 
	C107.208176,100.845016 108.526031,100.780724 110.290192,100.805687 
	C112.537315,100.850487 114.338158,100.806030 116.576416,100.830322 
	C119.678841,101.017151 122.343834,101.135231 125.007996,101.527557 
	C125.006447,102.344124 125.005737,102.886452 124.573257,103.555008 
	C121.431549,103.790581 118.721596,103.899925 115.579391,103.984589 
	C113.149223,103.926712 111.151321,103.893517 109.153419,103.860329 
	C108.046455,103.643692 106.939484,103.427063 105.122841,103.153824 
	C102.984497,103.409660 101.555832,103.722092 99.806404,103.896873 
	C98.610901,103.510262 97.736160,103.261292 96.861420,103.012314 
z"/>
<path fill="#4A74DB" opacity="1.000000" stroke="none" 
	d="
M128.523926,51.073792 
	C128.672653,47.641571 128.821365,44.209351 129.085403,40.419601 
	C137.091125,31.346472 145.807114,31.650637 153.095093,41.132927 
	C152.829559,45.564640 152.356903,49.752117 151.394226,53.836319 
	C150.549728,53.459904 150.195267,53.186768 149.929581,52.516739 
	C152.269531,45.890190 150.825104,39.432461 146.433517,38.305012 
	C142.240753,37.228611 137.533524,36.203773 133.734894,39.235481 
	C129.982742,42.230095 129.581100,46.551331 130.539719,51.044090 
	C129.675186,51.058800 129.099564,51.066296 128.523926,51.073792 
z"/>
<path fill="#CBE8F2" opacity="1.000000" stroke="none" 
	d="
M78.550812,115.019196 
	C85.227806,114.978645 91.433998,114.940613 98.291260,114.959015 
	C98.942345,115.015465 99.039085,115.378906 99.039078,115.378906 
	C97.849602,116.242302 96.670776,117.838356 95.468987,117.855843 
	C83.384354,118.031685 71.295883,117.962372 59.208782,117.902107 
	C58.519135,117.898666 57.832085,117.373352 57.182274,116.472572 
	C64.044144,114.007080 71.144798,115.515900 78.550812,115.019196 
z"/>
<path fill="#CDE7EE" opacity="1.000000" stroke="none" 
	d="
M109.111237,104.278732 
	C111.151321,103.893517 113.149223,103.926712 115.627930,104.355515 
	C117.380363,107.825302 118.652000,110.899490 119.923630,113.973671 
	C117.871086,114.313293 115.818550,114.652916 113.372147,115.009010 
	C111.675201,111.582710 110.372124,108.139923 109.111237,104.278732 
z"/>
<path fill="#CBE8F2" opacity="1.000000" stroke="none" 
	d="
M100.127167,104.034515 
	C101.555832,103.722092 102.984497,103.409660 104.784554,103.168114 
	C105.956520,107.879707 106.757095,112.520409 107.639816,117.637260 
	C105.880608,117.321007 104.186935,117.016541 102.364975,116.101379 
	C101.565552,112.612114 100.894402,109.733559 100.175095,106.504128 
	C100.127014,105.447014 100.127090,104.740761 100.127167,104.034515 
z"/>
<path fill="#4A7BDA" opacity="1.000000" stroke="none" 
	d="
M99.806404,103.896873 
	C100.127090,104.740761 100.127014,105.447014 100.090210,106.927795 
	C100.365776,110.231483 100.678078,112.760643 100.730331,115.381088 
	C100.348160,115.609634 100.226036,115.746902 100.103920,115.884171 
	C99.935219,115.781273 99.766518,115.678383 99.318451,115.477196 
	C99.039085,115.378906 98.942345,115.015465 98.797195,114.898026 
	C98.071999,111.153114 97.491951,107.525627 96.886658,103.455231 
	C97.736160,103.261292 98.610901,103.510262 99.806404,103.896873 
z"/>
<path fill="#8DC9E4" opacity="1.000000" stroke="none" 
	d="
M100.990372,115.289803 
	C100.678078,112.760643 100.365776,110.231483 100.138367,107.278656 
	C100.894402,109.733559 101.565552,112.612114 102.105499,115.859192 
	C101.754944,116.210304 101.535583,116.192909 101.080940,115.945732 
	C100.845665,115.715958 100.990372,115.289803 100.990372,115.289803 
z"/>
<path fill="#CBE8F2" opacity="1.000000" stroke="none" 
	d="
M100.730331,115.381088 
	C100.990372,115.289803 100.845665,115.715958 100.751610,115.923485 
	C100.657555,116.131012 100.271217,115.995453 100.187569,115.939812 
	C100.226036,115.746902 100.348160,115.609634 100.730331,115.381088 
z"/>
<path fill="#8DC9E4" opacity="1.000000" stroke="none" 
	d="
M150.975815,139.876831 
	C155.241608,136.966690 159.709671,134.310425 163.737427,131.101471 
	C179.355545,118.658333 181.943939,98.541443 173.071884,82.523003 
	C162.866943,64.097992 138.695236,57.930386 121.386719,67.234688 
	C120.821297,67.538635 120.138275,67.623787 119.254761,67.425461 
	C121.355644,65.548531 123.711853,64.057083 126.489502,62.491257 
	C127.460709,62.265633 128.010468,62.114384 128.560242,61.963135 
	C128.666672,61.618942 128.888046,61.512127 129.774078,61.736549 
	C136.009537,61.806458 141.699554,61.641190 147.379471,61.811737 
	C150.768387,61.913494 154.141479,62.542126 157.521683,62.933910 
	C158.120361,63.126499 158.719025,63.319092 159.273102,64.003128 
	C160.501404,65.846466 161.774338,67.198349 163.047272,68.550224 
	C163.449738,68.552368 163.852219,68.554520 164.577393,69.031631 
	C167.890610,72.699471 170.881119,75.892342 173.946060,79.434814 
	C188.050980,103.310669 177.527252,131.352524 151.022980,140.677277 
	C150.976532,140.234375 150.976166,140.055603 150.975815,139.876831 
z"/>
<path fill="#3D6DD9" opacity="1.000000" stroke="none" 
	d="
M151.069092,140.941422 
	C177.527252,131.352524 188.050980,103.310669 174.230011,79.269341 
	C174.694031,78.402672 174.948502,78.051079 175.202972,77.699493 
	C191.113373,98.579247 180.817139,132.114822 155.511047,141.799332 
	C153.966690,142.390350 152.369812,142.844086 150.421051,143.025879 
	C149.968094,142.059860 149.891479,141.429657 149.814865,140.799454 
	C149.814865,140.799454 149.822678,140.876663 150.141800,140.913788 
	C150.663651,140.947754 150.866379,140.944580 151.069092,140.941422 
z"/>
<path fill="#2A5BD5" opacity="1.000000" stroke="none" 
	d="
M157.303955,62.608311 
	C154.141479,62.542126 150.768387,61.913494 147.379471,61.811737 
	C141.699554,61.641190 136.009537,61.806458 129.880142,61.916363 
	C130.707626,60.650734 131.978745,59.299152 133.877548,57.280163 
	C130.883270,56.239933 127.638809,55.112793 124.031631,53.859638 
	C125.636780,53.087528 126.962021,52.450058 128.405594,51.443192 
	C129.099564,51.066296 129.675186,51.058800 130.765350,51.368484 
	C137.466843,52.094986 143.653824,52.504311 149.840805,52.913631 
	C150.195267,53.186768 150.549728,53.459904 151.078751,54.025299 
	C149.968124,55.681667 148.682953,57.045780 147.072144,58.755512 
	C150.527481,59.972565 153.806870,61.127640 157.303955,62.608311 
z"/>
<path fill="#2E5ED6" opacity="1.000000" stroke="none" 
	d="
M175.270569,77.387413 
	C174.948502,78.051079 174.694031,78.402672 174.155609,78.919731 
	C170.881119,75.892342 167.890610,72.699471 164.678619,69.222610 
	C166.197662,67.616302 167.938141,66.293983 169.832855,64.854500 
	C172.580338,67.727547 175.180161,70.446182 178.018036,73.413742 
	C177.218979,74.505516 176.278564,75.790421 175.270569,77.387413 
z"/>
<path fill="#5B8FDD" opacity="1.000000" stroke="none" 
	d="
M149.517456,140.751190 
	C149.891479,141.429657 149.968094,142.059860 150.087677,142.998352 
	C149.355606,143.554779 148.580612,143.802902 147.394684,144.003677 
	C146.766266,143.353363 146.548737,142.750427 146.063660,141.947205 
	C146.350220,141.436813 146.904297,141.126724 147.744751,140.664337 
	C148.427429,140.575668 148.823730,140.639297 149.517456,140.751190 
z"/>
<path fill="#2E5ED6" opacity="1.000000" stroke="none" 
	d="
M163.469086,68.247330 
	C161.774338,67.198349 160.501404,65.846466 159.387283,64.220993 
	C160.994354,65.279739 162.442627,66.612091 163.469086,68.247330 
z"/>
<path fill="#3F6FD9" opacity="1.000000" stroke="none" 
	d="
M126.068054,62.565624 
	C123.711853,64.057083 121.355644,65.548531 118.885330,67.346878 
	C118.771217,67.653778 118.782890,67.712662 118.449814,67.752647 
	C117.336678,68.458313 116.556633,69.123993 115.776588,69.789673 
	C115.044479,70.440254 114.312370,71.090828 112.968925,71.895187 
	C111.575600,73.043037 110.793610,74.037109 110.011627,75.031181 
	C109.354752,75.760689 108.697868,76.490189 107.927452,77.495117 
	C102.630989,80.493324 101.960396,85.924606 100.111473,90.641151 
	C99.764328,91.526718 99.574646,92.474022 99.146301,93.738579 
	C98.757973,92.418961 97.898407,90.518616 98.412384,89.124756 
	C103.282547,75.917274 111.573227,65.855911 125.649170,61.404247 
	C126.045502,62.047894 126.056778,62.306759 126.068054,62.565624 
z"/>
<path fill="#2A5BD5" opacity="1.000000" stroke="none" 
	d="
M126.489502,62.491257 
	C126.056778,62.306759 126.045502,62.047894 126.018425,61.400700 
	C126.868248,61.017345 127.733879,61.022324 128.579865,61.495216 
	C128.010468,62.114384 127.460709,62.265633 126.489502,62.491257 
z"/>
<path fill="#FAFAFB" opacity="1.000000" stroke="none" 
	d="
M109.843895,100.716431 
	C108.526031,100.780724 107.208176,100.845016 105.498489,100.859314 
	C103.431374,86.082222 116.791351,69.491409 132.811142,66.959351 
	C134.600845,66.676468 136.381226,66.334694 138.578918,66.032745 
	C138.992447,67.416306 138.992996,68.787346 138.942535,70.848495 
	C138.555984,71.984848 138.220459,72.431099 137.535660,72.741005 
	C134.795853,72.753433 132.405289,72.902214 129.654053,73.059395 
	C126.817123,74.684669 124.340889,76.301552 121.527199,77.973763 
	C113.413925,83.594223 109.906204,91.293808 109.843895,100.716431 
z"/>
<path fill="#8DC9E4" opacity="1.000000" stroke="none" 
	d="
M110.353706,75.009125 
	C110.793610,74.037109 111.575600,73.043037 112.698807,72.028809 
	C112.258606,73.001442 111.477196,73.994247 110.353706,75.009125 
z"/>
<path fill="#8DC9E4" opacity="1.000000" stroke="none" 
	d="
M116.123283,69.842148 
	C116.556633,69.123993 117.336678,68.458313 118.447983,67.782608 
	C118.009476,68.479935 117.239723,69.187279 116.123283,69.842148 
z"/>
<path fill="#5B8FDD" opacity="1.000000" stroke="none" 
	d="
M151.022980,140.677277 
	C150.866379,140.944580 150.663651,140.947754 150.163757,140.881805 
	C150.081223,140.565323 150.295822,140.317978 150.743134,139.973724 
	C150.976166,140.055603 150.976532,140.234375 151.022980,140.677277 
z"/>
<path fill="#FDFEFE" opacity="1.000000" stroke="none" 
	d="
M120.234116,114.123276 
	C118.652000,110.899490 117.380363,107.825302 116.060196,104.380196 
	C118.721596,103.899925 121.431549,103.790581 124.976929,103.694069 
	C128.778702,103.612160 131.053741,103.978874 132.256638,107.564713 
	C133.551605,111.425018 138.620514,113.185837 142.611832,112.237350 
	C147.128632,111.164001 149.475433,108.129288 149.853134,103.825165 
	C150.275436,99.012405 147.906570,95.579567 143.264740,93.337585 
	C142.908127,88.347687 142.628067,83.803543 142.347992,79.259407 
	C152.526642,79.444519 161.353302,88.943680 162.118576,99.604095 
	C162.599548,106.304268 160.238617,111.808418 157.030426,117.624695 
	C154.803497,119.325508 152.760788,121.045052 150.405106,121.948639 
	C139.694992,126.056824 127.501045,125.686699 120.234116,114.123276 
z"/>
<path fill="#3B62D1" opacity="1.000000" stroke="none" 
	d="
M142.038239,79.058540 
	C142.628067,83.803543 142.908127,88.347687 143.211853,93.750877 
	C143.474640,96.898506 144.176956,99.267349 143.798920,101.448959 
	C143.521744,103.048393 141.826996,104.402168 140.764053,105.865433 
	C139.592834,104.479218 137.680038,103.218765 137.418747,101.678215 
	C136.993637,99.171715 137.648453,96.482063 137.938980,93.431534 
	C138.312454,89.429787 138.774796,85.867111 138.792648,82.302216 
	C138.800400,80.754723 137.893402,79.202652 137.447998,77.470490 
	C137.624405,75.817993 137.754654,74.347679 137.884918,72.877357 
	C138.220459,72.431099 138.555984,71.984848 138.946960,71.260902 
	C139.696457,71.737030 140.771362,72.389374 141.004913,73.265892 
	C141.484619,75.066269 141.513840,76.986671 142.038239,79.058540 
z"/>
<path fill="#5B8FDD" opacity="1.000000" stroke="none" 
	d="
M138.197876,142.184326 
	C139.486557,141.731400 140.999298,141.565079 142.772461,141.620285 
	C141.495911,142.051514 139.958908,142.261215 138.197876,142.184326 
z"/>
<path fill="#FBFCFD" opacity="1.000000" stroke="none" 
	d="
M137.401871,77.652664 
	C137.893402,79.202652 138.800400,80.754723 138.792648,82.302216 
	C138.774796,85.867111 138.312454,89.429787 137.606812,93.510696 
	C135.909393,95.025322 134.090637,95.761848 133.465057,97.069283 
	C131.658234,100.845444 128.536194,101.308250 125.008835,101.253319 
	C122.343834,101.135231 119.678841,101.017151 116.544617,100.442871 
	C116.632172,92.872894 119.351280,86.924820 125.643021,82.680313 
	C127.635239,81.582809 129.350204,80.558266 131.583282,79.431396 
	C133.868210,78.770264 135.635040,78.211464 137.401871,77.652664 
z"/>
<path fill="#88C9E3" opacity="1.000000" stroke="none" 
	d="
M125.007996,101.527557 
	C128.536194,101.308250 131.658234,100.845444 133.465057,97.069283 
	C134.090637,95.761848 135.909393,95.025322 137.515320,93.948868 
	C137.648453,96.482063 136.993637,99.171715 137.418747,101.678215 
	C137.680038,103.218765 139.592834,104.479218 140.764053,105.865433 
	C141.826996,104.402168 143.521744,103.048393 143.798920,101.448959 
	C144.176956,99.267349 143.474640,96.898506 143.288406,94.196640 
	C147.906570,95.579567 150.275436,99.012405 149.853134,103.825165 
	C149.475433,108.129288 147.128632,111.164001 142.611832,112.237350 
	C138.620514,113.185837 133.551605,111.425018 132.256638,107.564713 
	C131.053741,103.978874 128.778702,103.612160 125.408691,103.567841 
	C125.005737,102.886452 125.006447,102.344124 125.007996,101.527557 
z"/>
<path fill="#CDE9F2" opacity="1.000000" stroke="none" 
	d="
M125.365784,82.753273 
	C119.351280,86.924820 116.632172,92.872894 116.107193,100.374115 
	C114.338158,100.806030 112.537315,100.850487 110.290192,100.805687 
	C109.906204,91.293808 113.413925,83.594223 121.753456,78.226776 
	C123.333374,79.867393 124.349579,81.310333 125.365784,82.753273 
z"/>
<path fill="#DFEEF8" opacity="1.000000" stroke="none" 
	d="
M149.929581,52.516739 
	C143.653824,52.504311 137.466843,52.094986 131.054230,51.361271 
	C129.581100,46.551331 129.982742,42.230095 133.734894,39.235481 
	C137.533524,36.203773 142.240753,37.228611 146.433517,38.305012 
	C150.825104,39.432461 152.269531,45.890190 149.929581,52.516739 
z"/>
<path fill="#EFB567" opacity="1.000000" stroke="none" 
	d="
M125.643021,82.680313 
	C124.349579,81.310333 123.333374,79.867393 122.090904,78.171448 
	C124.340889,76.301552 126.817123,74.684669 129.653214,73.463882 
	C130.363770,75.751221 130.714478,77.642464 131.065186,79.533714 
	C129.350204,80.558266 127.635239,81.582809 125.643021,82.680313 
z"/>
<path fill="#E88C42" opacity="1.000000" stroke="none" 
	d="
M131.583282,79.431396 
	C130.714478,77.642464 130.363770,75.751221 130.013901,73.455482 
	C132.405289,72.902214 134.795853,72.753433 137.535660,72.741005 
	C137.754654,74.347679 137.624405,75.817993 137.447998,77.470490 
	C135.635040,78.211464 133.868210,78.770264 131.583282,79.431396 
z"/>
</svg>